<!DOCTYPE svg PUBLIC "-//W3C//DTD SVG 20010904//EN" "http://www.w3.org/TR/2001/REC-SVG-20010904/DTD/svg10.dtd">
<svg version="1.0" xmlns="http://www.w3.org/2000/svg" width="261px" height="152px" viewBox="0 0 2610 1520" preserveAspectRatio="xMidYMid meet">
<g id="layer101" fill="#050707" stroke="none">
 <path d="M0 760 l0 -760 1305 0 1305 0 0 760 0 760 -1305 0 -1305 0 0 -760z"/>
 </g>
<g id="layer102" fill="#0d1f12" stroke="none">
 <path d="M0 760 l0 -760 1305 0 1305 0 0 760 0 760 -1305 0 -1305 0 0 -760z m1425 343 c0 -103 -10 -116 -58 -71 -32 31 -35 37 -35 95 0 66 7 79 48 85 36 5 45 -16 45 -109z m55 -823 c19 -12 -196 -12 -225 0 -13 5 22 9 95 9 63 0 122 -4 130 -9z"/>
 </g>
<g id="layer103" fill="#363636" stroke="none">
 <path d="M0 760 l0 -760 1305 0 1305 0 0 760 0 760 -1305 0 -1305 0 0 -760z m1426 404 c7 -63 1 -151 -12 -164 -5 -5 -25 5 -47 24 l-38 33 3 74 c3 79 5 81 75 88 7 1 14 -21 19 -55z m-132 -23 c-4 -17 -9 -30 -11 -27 -3 2 -2 19 2 36 9 41 17 33 9 -9z m213 -48 c-3 -10 -5 -4 -5 12 0 17 2 24 5 18 2 -7 2 -21 0 -30z m-22 -812 c34 -14 -165 -18 -215 -5 -42 11 -37 12 75 12 66 1 129 -3 140 -7z"/>
 </g>
<g id="layer104" fill="#3e5133" stroke="none">
 <path d="M0 760 l0 -760 1305 0 1305 0 0 760 0 760 -1305 0 -1305 0 0 -760z m1424 429 c8 -40 8 -147 0 -176 -9 -32 -25 -29 -63 10 -31 33 -32 36 -29 108 3 68 5 74 28 80 48 13 57 10 64 -22z m-130 -48 c-4 -17 -9 -30 -11 -27 -3 2 -2 19 2 36 9 41 17 33 9 -9z m205 -85 c-9 -8 -10 -2 -5 29 3 22 7 47 8 55 1 8 3 -5 5 -29 3 -26 -1 -48 -8 -55z m-15 -80 c-3 -15 -8 -25 -11 -23 -2 3 -1 17 3 31 3 15 8 25 11 23 2 -3 1 -17 -3 -31z m-14 -46 c0 -13 -46 -60 -58 -60 -5 0 5 16 22 34 35 39 36 40 36 26z m-83 -66 c-3 -3 -12 -4 -19 -1 -8 3 -5 6 6 6 11 1 17 -2 13 -5z m-40 -11 c-4 -3 -10 -3 -14 0 -3 4 0 7 7 7 7 0 10 -3 7 -7z m-40 -10 c-4 -3 -10 -3 -14 0 -3 4 0 7 7 7 7 0 10 -3 7 -7z m-30 -10 c-4 -3 -10 -3 -14 0 -3 4 0 7 7 7 7 0 10 -3 7 -7z m-30 -9 c-3 -3 -12 -4 -19 -1 -8 3 -5 6 6 6 11 1 17 -2 13 -5z m-50 -11 c-4 -3 -10 -3 -14 0 -3 4 0 7 7 7 7 0 10 -3 7 -7z m-70 -19 c-3 -3 -12 -4 -19 -1 -8 3 -5 6 6 6 11 1 17 -2 13 -5z m-40 -10 c-3 -3 -12 -4 -19 -1 -8 3 -5 6 6 6 11 1 17 -2 13 -5z m-50 -10 c-3 -3 -12 -4 -19 -1 -8 3 -5 6 6 6 11 1 17 -2 13 -5z m-40 -10 c-3 -3 -12 -4 -19 -1 -8 3 -5 6 6 6 11 1 17 -2 13 -5z m-50 -10 c-3 -3 -12 -4 -19 -1 -8 3 -5 6 6 6 11 1 17 -2 13 -5z m-50 -11 c-4 -3 -10 -3 -14 0 -3 4 0 7 7 7 7 0 10 -3 7 -7z m-350 -70 c-4 -3 -10 -3 -14 0 -3 4 0 7 7 7 7 0 10 -3 7 -7z m921 -385 l47 -13 -100 -6 c-64 -4 -116 -3 -145 5 -45 11 -45 11 50 17 52 3 96 6 98 7 2 1 24 -4 50 -10z"/>
 </g>
<g id="layer105" fill="#545454" stroke="none">
 <path d="M0 760 l0 -760 1305 0 1305 0 0 760 0 760 -1305 0 -1305 0 0 -760z m1424 429 c8 -40 8 -147 0 -176 -8 -30 -22 -29 -61 7 -29 26 -33 36 -33 82 0 66 -14 94 -28 58 -5 -14 -12 -34 -15 -45 -4 -16 -5 -14 -6 7 -2 52 15 76 61 86 70 16 75 15 82 -19z m85 -84 c0 -22 -4 -49 -9 -60 -6 -13 -8 4 -7 53 0 40 4 66 9 60 4 -7 7 -31 7 -53z m-24 -125 c-9 -41 -17 -33 -9 9 4 17 9 30 11 27 3 -2 2 -19 -2 -36z m-28 -74 c-15 -23 -82 -54 -93 -43 -3 3 9 8 26 12 17 4 40 20 52 36 26 34 38 30 15 -5z m-110 -53 c-4 -3 -10 -3 -14 0 -3 4 0 7 7 7 7 0 10 -3 7 -7z m-30 -9 c-3 -3 -12 -4 -19 -1 -8 3 -5 6 6 6 11 1 17 -2 13 -5z m-52 -14 c-11 -5 -27 -9 -35 -9 -9 0 -8 4 5 9 11 5 27 9 35 9 9 0 8 -4 -5 -9z m-68 -17 c-4 -3 -10 -3 -14 0 -3 4 0 7 7 7 7 0 10 -3 7 -7z m-40 -10 c-4 -3 -10 -3 -14 0 -3 4 0 7 7 7 7 0 10 -3 7 -7z m-30 -9 c-3 -3 -12 -4 -19 -1 -8 3 -5 6 6 6 11 1 17 -2 13 -5z m-40 -10 c-3 -3 -12 -4 -19 -1 -8 3 -5 6 6 6 11 1 17 -2 13 -5z m-50 -10 c-3 -3 -12 -4 -19 -1 -8 3 -5 6 6 6 11 1 17 -2 13 -5z m-44 -11 c-7 -2 -19 -2 -25 0 -7 3 -2 5 12 5 14 0 19 -2 13 -5z m-50 -10 c-7 -2 -19 -2 -25 0 -7 3 -2 5 12 5 14 0 19 -2 13 -5z m-46 -10 c-4 -3 -10 -3 -14 0 -3 4 0 7 7 7 7 0 10 -3 7 -7z m-57 -7 c0 -2 -7 -7 -16 -10 -8 -3 -12 -2 -9 4 6 10 25 14 25 6z m-83 -23 c-4 -3 -10 -3 -14 0 -3 4 0 7 7 7 7 0 10 -3 7 -7z m-210 -39 c-3 -3 -12 -4 -19 -1 -8 3 -5 6 6 6 11 1 17 -2 13 -5z m-50 -10 c-3 -3 -12 -4 -19 -1 -8 3 -5 6 6 6 11 1 17 -2 13 -5z m978 -378 c39 -12 38 -12 -60 -18 -61 -4 -119 -2 -150 6 l-50 11 95 6 c52 3 102 6 110 6 8 1 33 -4 55 -11z"/>
 </g>
<g id="layer106" fill="#5f665e" stroke="none">
 <path d="M0 760 l0 -760 1305 0 1305 0 0 760 0 760 -1305 0 -1305 0 0 -760z m1579 493 c2 -2 0 -3 -6 -3 -6 0 -21 9 -34 21 l-24 20 30 -17 c17 -10 32 -19 34 -21z m-114 7 c3 -5 4 -10 1 -10 -3 0 -8 5 -11 10 -3 6 -4 10 -1 10 3 0 8 -4 11 -10z m-39 -75 c9 -48 1 -182 -12 -195 -6 -6 -22 0 -47 21 -35 29 -37 34 -37 87 0 71 -14 99 -29 59 -6 -16 -11 -36 -11 -45 0 -14 -2 -14 -9 -3 -5 8 -4 28 3 50 11 31 19 38 57 48 71 19 77 17 85 -22z m83 -81 c1 -65 -33 -179 -63 -208 -33 -33 -311 -108 -675 -182 -68 -13 -126 -22 -129 -20 -5 6 7 9 138 36 52 10 138 29 190 41 52 11 114 25 138 30 24 5 47 11 51 13 4 3 20 7 35 10 54 10 211 58 233 72 36 23 58 106 58 222 0 91 1 99 12 70 6 -18 12 -56 12 -84z m271 16 c8 -5 11 -10 5 -10 -5 0 -21 10 -35 21 -24 20 -5 13 30 -11z m225 -150 c3 -5 4 -10 1 -10 -3 0 -8 5 -11 10 -3 6 -4 10 -1 10 3 0 8 -4 11 -10z m80 -58 c-3 -3 -11 0 -18 7 -9 10 -8 11 6 5 10 -3 15 -9 12 -12z m32 -19 c-4 -3 -10 -3 -14 0 -3 4 0 7 7 7 7 0 10 -3 7 -7z m50 -40 c-4 -3 -7 0 -7 7 0 7 3 10 7 7 3 -4 3 -10 0 -14z m78 -43 c3 -6 -1 -7 -9 -4 -18 7 -21 14 -7 14 6 0 13 -4 16 -10z m82 -57 c-4 -3 -10 -3 -14 0 -3 4 0 7 7 7 7 0 10 -3 7 -7z m-1702 -62 c-12 -10 -210 -44 -226 -39 -7 2 39 13 102 25 144 26 135 25 124 14z m-405 -66 c0 -8 -40 9 -51 21 -8 10 -3 10 20 -2 17 -9 31 -17 31 -19z m143 18 c-7 -2 -21 -2 -30 0 -10 3 -4 5 12 5 17 0 24 -2 18 -5z m-60 -10 c-7 -2 -19 -2 -25 0 -7 3 -2 5 12 5 14 0 19 -2 13 -5z m2104 -30 c-4 -3 -7 0 -7 7 0 7 3 10 7 7 3 -4 3 -10 0 -14z m-932 -315 c40 -12 39 -12 -55 -19 -62 -5 -114 -4 -150 4 l-55 12 85 6 c47 3 96 6 110 7 14 1 43 -4 65 -10z"/>
 </g>
<g id="layer107" fill="#699339" stroke="none">
 <path d="M0 760 l0 -760 1305 0 1305 0 0 760 0 760 -1305 0 -1305 0 0 -760z m1830 329 c176 -117 320 -215 320 -220 0 -7 -63 30 -135 81 -46 32 -241 160 -311 205 -78 49 -155 101 -171 115 -7 5 -16 10 -21 10 -5 0 -16 8 -23 17 -12 15 -12 16 4 10 10 -4 162 -102 337 -218z m-374 186 c32 -32 56 -126 51 -195 -12 -140 -45 -196 -132 -222 -80 -25 -312 -83 -405 -103 -41 -9 -128 -27 -194 -41 -274 -58 -555 -98 -591 -84 -12 5 -25 16 -29 26 -10 25 -2 27 19 4 23 -26 64 -26 225 0 142 23 122 19 300 54 249 50 600 135 684 167 52 19 56 23 77 77 16 43 21 79 21 147 0 90 -7 120 -38 163 -19 25 -10 30 12 7z m-32 -71 c8 -21 8 -153 0 -194 -6 -25 -11 -31 -27 -26 -15 4 -17 2 -8 -7 6 -6 11 -14 11 -19 0 -8 -72 -30 -78 -23 -5 5 -4 30 4 122 11 126 -14 163 -37 55 -16 -74 -28 -88 -18 -20 12 85 23 104 66 116 56 15 80 14 87 -4z m-142 -231 c-7 -36 -12 -27 -11 20 0 30 3 36 8 23 4 -11 6 -30 3 -43z m1092 -268 c14 -21 26 -46 26 -55 0 -8 -9 3 -19 26 -14 31 -39 55 -99 97 -44 32 -83 57 -87 57 -3 0 -13 6 -21 14 -33 34 -8 22 80 -36 60 -40 104 -77 120 -103z m33 -97 c-3 -8 -6 -5 -6 6 -1 11 2 17 5 13 3 -3 4 -12 1 -19z m-922 -322 c39 -12 37 -12 -65 -18 -67 -4 -123 -2 -155 5 l-50 12 80 6 c127 9 148 8 190 -5z"/>
 <path d="M1340 990 c0 -7 3 -10 7 -7 3 4 3 10 0 14 -4 3 -7 0 -7 -7z"/>
 </g>
<g id="layer108" fill="#727272" stroke="none">
 <path d="M0 760 l0 -760 1305 0 1305 0 0 760 0 760 -1305 0 -1305 0 0 -760z m1830 329 c176 -117 320 -215 320 -220 0 -7 -63 30 -135 81 -46 32 -241 160 -311 205 -78 49 -155 101 -171 115 -7 5 -16 10 -21 10 -5 0 -16 8 -23 17 -12 15 -12 16 4 10 10 -4 162 -102 337 -218z m-374 186 c32 -32 56 -126 51 -195 -12 -140 -45 -196 -132 -222 -80 -25 -312 -83 -405 -103 -41 -9 -128 -27 -194 -41 -274 -58 -555 -98 -591 -84 -12 5 -25 16 -29 26 -10 25 -2 27 19 4 23 -26 64 -26 225 0 142 23 122 19 300 54 249 50 600 135 684 167 52 19 56 23 77 77 16 43 21 79 21 147 0 90 -7 120 -38 163 -19 25 -10 30 12 7z m-32 -71 c8 -21 8 -153 0 -194 -6 -25 -11 -31 -27 -26 -15 4 -17 2 -8 -7 6 -6 11 -14 11 -19 0 -8 -72 -30 -78 -23 -6 6 -5 43 3 97 8 48 -2 145 -13 134 -9 -9 -32 -79 -32 -98 0 -9 -4 -19 -8 -22 -10 -6 2 89 16 125 16 39 123 66 136 33z m-139 -211 c3 -18 1 -35 -5 -38 -6 -4 -10 10 -10 36 0 48 6 49 15 2z m1089 -288 c14 -21 26 -46 26 -55 0 -8 -9 3 -19 26 -14 31 -39 55 -99 97 -44 32 -83 57 -87 57 -3 0 -13 6 -21 14 -33 34 -8 22 80 -36 60 -40 104 -77 120 -103z m33 -97 c-3 -8 -6 -5 -6 6 -1 11 2 17 5 13 3 -3 4 -12 1 -19z m-922 -322 c39 -12 37 -12 -65 -18 -67 -4 -123 -2 -155 5 l-50 12 80 6 c127 9 148 8 190 -5z"/>
 <path d="M1340 990 c0 -7 3 -10 7 -7 3 4 3 10 0 14 -4 3 -7 0 -7 -7z"/>
 </g>
<g id="layer109" fill="#807d85" stroke="none">
 <path d="M0 760 l0 -760 1305 0 1305 0 0 760 0 760 -1305 0 -1305 0 0 -760z m1709 414 c113 -75 224 -148 246 -163 22 -14 45 -30 50 -34 6 -4 82 -55 170 -113 88 -59 170 -115 182 -127 25 -23 57 -108 50 -134 -4 -14 -5 -13 -6 4 -3 52 -43 110 -100 144 -31 19 -65 42 -75 51 -11 10 -28 20 -38 24 -10 3 -18 10 -18 15 0 6 -4 8 -9 5 -4 -3 -18 5 -31 19 -13 14 -28 21 -38 18 -9 -4 -13 -2 -9 4 3 5 -13 20 -36 33 -23 13 -56 34 -73 47 -17 13 -36 23 -42 23 -7 0 -12 3 -12 8 0 9 -62 46 -72 44 -5 -1 -8 3 -8 9 0 5 -4 7 -10 4 -5 -3 -10 1 -10 9 0 9 -4 17 -10 17 -20 3 -26 5 -60 27 -19 12 -39 22 -43 22 -5 0 -5 5 -1 12 5 8 2 9 -10 5 -10 -4 -19 -1 -22 7 -3 7 -30 26 -60 41 -29 15 -54 31 -54 36 0 5 -7 9 -15 9 -8 0 -15 5 -15 11 0 5 -3 8 -7 6 -5 -3 -18 11 -31 30 -32 49 -23 45 217 -113z m-482 109 c-4 -3 -10 -3 -14 0 -3 4 0 7 7 7 7 0 10 -3 7 -7z m253 -48 c48 -95 26 -293 -38 -348 -77 -66 -1170 -290 -1256 -258 -25 10 -36 30 -36 64 1 18 3 16 15 -10 9 -21 23 -35 40 -39 42 -10 469 61 730 123 357 83 470 115 497 140 34 30 51 117 46 227 -5 92 -7 101 -32 122 -30 27 -33 37 -8 32 9 -2 28 -25 42 -53z m-303 38 c-4 -3 -10 -3 -14 0 -3 4 0 7 7 7 7 0 10 -3 7 -7z m80 -20 c-4 -3 -10 -3 -14 0 -3 4 0 7 7 7 7 0 10 -3 7 -7z m-220 -10 c-4 -3 -10 -3 -14 0 -3 4 0 7 7 7 7 0 10 -3 7 -7z m-40 -10 c-4 -3 -10 -3 -14 0 -3 4 0 7 7 7 7 0 10 -3 7 -7z m170 0 c-4 -3 -10 -3 -14 0 -3 4 0 7 7 7 7 0 10 -3 7 -7z m-210 -9 c-3 -3 -12 -4 -19 -1 -8 3 -5 6 6 6 11 1 17 -2 13 -5z m-40 -10 c-3 -3 -12 -4 -19 -1 -8 3 -5 6 6 6 11 1 17 -2 13 -5z m508 -14 c14 -45 7 -179 -11 -217 -32 -64 -117 -71 -98 -8 18 64 14 211 -5 189 -19 -22 -33 -96 -28 -147 6 -72 -8 -95 -17 -26 -7 57 5 154 23 187 6 11 28 24 48 30 60 16 81 14 88 -8z m-548 4 c-3 -3 -12 -4 -19 -1 -8 3 -5 6 6 6 11 1 17 -2 13 -5z m130 -1 c-4 -3 -10 -3 -14 0 -3 4 0 7 7 7 7 0 10 -3 7 -7z m-170 -9 c-3 -3 -12 -4 -19 -1 -8 3 -5 6 6 6 11 1 17 -2 13 -5z m-40 -10 c-3 -3 -12 -4 -19 -1 -8 3 -5 6 6 6 11 1 17 -2 13 -5z m-40 -10 c-3 -3 -12 -4 -19 -1 -8 3 -5 6 6 6 11 1 17 -2 13 -5z m-40 -11 c-4 -3 -10 -3 -14 0 -3 4 0 7 7 7 7 0 10 -3 7 -7z m130 0 c-4 -3 -10 -3 -14 0 -3 4 0 7 7 7 7 0 10 -3 7 -7z m-170 -10 c-4 -3 -10 -3 -14 0 -3 4 0 7 7 7 7 0 10 -3 7 -7z m-40 -10 c-4 -3 -10 -3 -14 0 -3 4 0 7 7 7 7 0 10 -3 7 -7z m-80 -20 c-4 -3 -10 -3 -14 0 -3 4 0 7 7 7 7 0 10 -3 7 -7z m130 0 c-4 -3 -10 -3 -14 0 -3 4 0 7 7 7 7 0 10 -3 7 -7z m-210 -20 c-4 -3 -10 -3 -14 0 -3 4 0 7 7 7 7 0 10 -3 7 -7z m-330 -380 c-4 -3 -7 0 -7 7 0 7 3 10 7 7 3 -4 3 -10 0 -14z m2260 -245 c-3 -8 -6 -5 -6 6 -1 11 2 17 5 13 3 -3 4 -12 1 -19z m-917 -192 c33 -12 29 -13 -72 -19 -72 -5 -125 -3 -160 6 l-53 12 80 6 c131 9 168 8 205 -5z"/>
 </g>
<g id="layer110" fill="#818c82" stroke="none">
 <path d="M0 760 l0 -760 1305 0 1305 0 0 760 0 760 -1305 0 -1305 0 0 -760z m1518 541 c15 -10 155 -103 312 -206 490 -323 509 -336 534 -366 29 -34 49 -98 43 -137 -4 -24 -4 -23 -6 6 -2 54 -52 139 -74 125 -6 -3 -7 -1 -3 5 4 7 1 12 -8 12 -9 0 -16 5 -16 10 0 6 -7 10 -16 10 -9 0 -39 16 -65 35 -27 19 -54 35 -59 35 -6 0 -10 4 -10 9 0 5 -18 17 -40 27 -21 10 -37 21 -34 26 3 4 -1 5 -9 2 -8 -3 -17 2 -20 10 -4 9 -13 16 -22 16 -8 0 -15 5 -15 10 0 6 -5 10 -10 10 -14 0 -93 52 -103 67 -4 7 -14 13 -21 13 -7 0 -32 14 -55 30 -23 17 -47 28 -54 24 -7 -4 -9 -4 -5 1 8 9 -42 45 -99 71 -21 10 -42 24 -46 31 -4 7 -14 13 -21 13 -8 0 -17 7 -20 16 -4 9 -13 14 -22 10 -8 -3 -12 -2 -9 4 3 6 -1 10 -10 10 -9 0 -14 4 -11 9 4 5 3 11 -1 13 -15 6 -53 68 -43 68 6 0 23 -8 38 -19z m-171 3 c-3 -3 -12 -4 -19 -1 -8 3 -5 6 6 6 11 1 17 -2 13 -5z m-70 -11 c-4 -3 -10 -3 -14 0 -3 4 0 7 7 7 7 0 10 -3 7 -7z m-44 -10 c-7 -2 -19 -2 -25 0 -7 3 -2 5 12 5 14 0 19 -2 13 -5z m230 -10 c52 -60 60 -217 15 -329 -21 -54 -27 -60 -72 -76 -188 -70 -773 -195 -1113 -238 -108 -14 -127 -7 -143 48 -13 47 -13 85 0 77 6 -3 10 -17 10 -30 0 -38 20 -73 46 -79 24 -6 182 14 309 39 39 8 142 28 230 45 143 27 252 51 465 104 128 32 210 60 226 77 35 38 54 182 38 281 -9 50 -38 80 -78 78 -49 -3 -63 1 -36 10 44 14 86 11 103 -7z m-280 0 c-7 -2 -19 -2 -25 0 -7 3 -2 5 12 5 14 0 19 -2 13 -5z m-46 -9 c-3 -3 -12 -4 -19 -1 -8 3 -5 6 6 6 11 1 17 -2 13 -5z m170 -1 c-4 -3 -10 -3 -14 0 -3 4 0 7 7 7 7 0 10 -3 7 -7z m-220 -9 c-3 -3 -12 -4 -19 -1 -8 3 -5 6 6 6 11 1 17 -2 13 -5z m192 2 c-2 -2 -44 -11 -94 -21 -49 -9 -101 -19 -115 -22 -14 -3 -22 -2 -18 2 9 9 160 42 202 44 16 0 27 -1 25 -3z m-232 -12 c-3 -3 -12 -4 -19 -1 -8 3 -5 6 6 6 11 1 17 -2 13 -5z m-44 -11 c-7 -2 -19 -2 -25 0 -7 3 -2 5 12 5 14 0 19 -2 13 -5z m-48 -8 c-33 -13 -370 -95 -378 -92 -12 4 341 95 368 95 11 0 16 -1 10 -3z m470 -25 c11 -35 9 -163 -4 -208 -12 -43 -28 -56 -82 -64 -27 -3 -28 7 -14 104 8 51 -2 146 -14 132 -19 -22 -33 -96 -28 -147 6 -70 -9 -98 -18 -33 -9 54 0 135 19 181 21 49 128 76 141 35z m-515 -26 c-74 -19 -142 -33 -150 -32 -19 4 227 66 260 66 14 0 -36 -15 -110 -34z m649 -44 c7 0 29 -15 71 -51 l25 -21 -25 7 c-14 4 -35 8 -47 9 -15 1 -23 7 -23 19 0 10 -4 15 -10 12 -6 -4 -10 7 -9 27 1 18 3 25 6 16 2 -10 8 -18 12 -18z m-822 4 c-3 -3 -12 -4 -19 -1 -8 3 -5 6 6 6 11 1 17 -2 13 -5z m-192 -14 c-11 -5 -27 -9 -35 -9 -9 0 -8 4 5 9 11 5 27 9 35 9 9 0 8 -4 -5 -9z m152 4 c-3 -3 -12 -4 -19 -1 -8 3 -5 6 6 6 11 1 17 -2 13 -5z m-40 -10 c-3 -3 -12 -4 -19 -1 -8 3 -5 6 6 6 11 1 17 -2 13 -5z m-170 -10 c-3 -3 -12 -4 -19 -1 -8 3 -5 6 6 6 11 1 17 -2 13 -5z m-52 -14 c-27 -12 -43 -12 -25 0 8 5 22 9 30 9 10 0 8 -3 -5 -9z m112 -7 c-4 -3 -10 -3 -14 0 -3 4 0 7 7 7 7 0 10 -3 7 -7z m-170 -10 c-4 -3 -10 -3 -14 0 -3 4 0 7 7 7 7 0 10 -3 7 -7z m140 0 c-4 -3 -10 -3 -14 0 -3 4 0 7 7 7 7 0 10 -3 7 -7z m-47 -13 c-8 -5 -22 -9 -30 -9 -10 0 -8 3 5 9 27 12 43 12 25 0z m-153 -7 c-4 -3 -10 -3 -14 0 -3 4 0 7 7 7 7 0 10 -3 7 -7z m100 -10 c-4 -3 -10 -3 -14 0 -3 4 0 7 7 7 7 0 10 -3 7 -7z m1263 -3 c0 -5 -4 -10 -9 -10 -6 0 -13 5 -16 10 -3 6 1 10 9 10 9 0 16 -4 16 -10z m-1303 -7 c-4 -3 -10 -3 -14 0 -3 4 0 7 7 7 7 0 10 -3 7 -7z m1346 -13 c3 -11 4 -20 3 -20 -2 0 -11 9 -21 20 -15 17 -16 20 -3 20 9 0 18 -9 21 -20z m-1426 -17 c-4 -3 -10 -3 -14 0 -3 4 0 7 7 7 7 0 10 -3 7 -7z m-84 -30 c-7 -2 -13 -12 -13 -20 0 -9 -3 -14 -6 -10 -10 10 4 37 18 36 10 0 10 -2 1 -6z m-36 -70 c-4 -3 -7 0 -7 7 0 7 3 10 7 7 3 -4 3 -10 0 -14z m-10 -30 c-4 -3 -7 0 -7 7 0 7 3 10 7 7 3 -4 3 -10 0 -14z m-10 -60 c-3 -10 -5 -4 -5 12 0 17 2 24 5 18 2 -7 2 -21 0 -30z m1790 -278 c20 -8 34 -18 30 -21 -3 -3 -22 4 -44 15 -45 24 -37 27 14 6z m460 -57 c-3 -7 -5 -2 -5 12 0 14 2 19 5 13 2 -7 2 -19 0 -25z m-10 -45 c-4 -3 -7 0 -7 7 0 7 3 10 7 7 3 -4 3 -10 0 -14z m-907 -147 c33 -12 29 -13 -72 -19 -72 -5 -125 -3 -160 6 l-53 12 80 6 c131 9 168 8 205 -5z"/>
 </g>
<g id="layer111" fill="#869f76" stroke="none">
 <path d="M0 760 l0 -760 1305 0 1305 0 0 760 0 760 -1305 0 -1305 0 0 -760z m1375 550 c-11 -5 -29 -8 -40 -8 -16 0 -15 2 5 8 34 11 60 11 35 0z m137 -3 c7 -7 32 -24 54 -38 23 -13 211 -136 418 -273 362 -241 377 -252 401 -300 16 -31 25 -65 24 -90 l-2 -41 -6 41 c-9 56 -50 118 -78 120 -29 2 -34 4 -29 13 3 5 -5 12 -19 15 -14 4 -25 11 -25 16 0 6 -6 10 -12 10 -7 0 -37 18 -66 40 -29 22 -55 40 -58 40 -3 0 -26 14 -51 30 -24 17 -49 28 -54 25 -5 -3 -7 0 -4 7 2 8 -19 24 -56 42 -32 16 -59 33 -59 38 0 4 -5 8 -11 8 -6 0 -30 14 -54 30 -24 17 -49 30 -55 30 -6 0 -8 5 -5 10 3 6 0 10 -9 10 -8 0 -28 11 -44 25 -17 14 -34 25 -39 25 -17 0 -113 67 -106 74 4 4 0 4 -9 1 -12 -5 -24 5 -44 37 -15 24 -31 45 -35 46 -5 2 -9 8 -9 13 0 13 27 11 42 -4z m-235 -13 c-3 -3 -12 -4 -19 -1 -8 3 -5 6 6 6 11 1 17 -2 13 -5z m-44 -11 c-7 -2 -19 -2 -25 0 -7 3 -2 5 12 5 14 0 19 -2 13 -5z m235 -18 c48 -61 53 -207 12 -318 -18 -48 -28 -61 -56 -73 -117 -49 -538 -147 -869 -204 -298 -50 -351 -55 -379 -37 -29 20 -40 85 -27 167 l9 55 1 -77 c1 -89 14 -124 47 -132 61 -16 670 101 1054 202 165 43 168 45 192 99 39 87 36 259 -4 303 -19 20 -26 21 -87 15 -36 -4 -68 -8 -72 -10 -10 -7 -233 -44 -237 -41 -5 5 21 12 93 26 33 7 101 20 150 30 130 25 150 25 173 -5z m-279 11 c-7 -7 -211 -47 -215 -43 -3 2 37 14 88 25 89 19 136 26 127 18z m-234 -52 c-30 -12 -448 -114 -452 -111 -4 5 41 18 272 77 125 32 219 50 180 34z m478 -59 c8 -53 4 -114 -14 -177 -11 -41 -25 -51 -95 -64 -33 -6 -37 -5 -28 7 29 38 43 159 24 219 -7 23 -8 24 -15 5 -4 -11 -11 -32 -17 -47 -6 -16 -8 -54 -5 -87 6 -74 -8 -103 -18 -37 -9 54 0 135 19 181 15 34 58 55 111 52 28 -2 30 -5 38 -52z m-543 4 c-85 -21 -161 -38 -169 -37 -20 4 258 76 294 76 17 0 -40 -17 -125 -39z m674 -30 c8 -12 19 -18 24 -15 5 3 16 -1 23 -10 7 -8 33 -27 58 -41 25 -15 58 -40 73 -56 15 -16 31 -26 36 -23 14 9 62 -40 62 -64 0 -12 -4 -18 -10 -15 -5 3 -10 15 -10 26 0 16 -5 19 -20 14 -11 -4 -20 -2 -20 4 0 6 -7 11 -16 11 -9 0 -39 14 -66 30 -26 17 -55 30 -62 30 -8 0 -17 6 -19 13 -4 9 -8 8 -16 -3 -9 -12 -11 -11 -11 9 0 16 -4 21 -15 17 -9 -3 -15 0 -15 8 0 8 -4 16 -10 18 -5 2 -12 18 -16 36 -8 37 7 43 30 11z m-879 -19 c-11 -5 -29 -8 -40 -8 -16 0 -15 2 5 8 34 11 60 11 35 0z m-198 -16 c-3 -3 -12 -4 -19 -1 -8 3 -5 6 6 6 11 1 17 -2 13 -5z m123 -4 c-8 -5 -22 -10 -30 -10 -13 0 -13 1 0 10 8 5 22 10 30 10 13 0 13 -1 0 -10z m-175 -10 c-27 -12 -43 -12 -25 0 8 5 22 9 30 9 10 0 8 -3 -5 -9z m110 -10 c-11 -5 -27 -9 -35 -9 -13 -1 -13 0 0 9 8 5 24 9 35 9 l20 0 -20 -9z m-195 -16 c-56 -17 -64 -17 -25 1 17 8 39 14 50 14 11 0 0 -7 -25 -15z m105 -9 c-16 -8 -37 -14 -45 -14 -8 0 1 7 20 14 46 18 64 17 25 0z m-168 -12 c-4 -3 -10 -3 -14 0 -3 4 0 7 7 7 7 0 10 -3 7 -7z m-27 -7 c0 -2 -7 -7 -16 -10 -8 -3 -12 -2 -9 4 6 10 25 14 25 6z m117 -3 c-4 -3 -10 -3 -14 0 -3 4 0 7 7 7 7 0 10 -3 7 -7z m-177 -17 c0 -2 -8 -10 -17 -17 -16 -13 -17 -12 -4 4 13 16 21 21 21 13z m90 -13 c-8 -3 -24 -10 -35 -15 -20 -9 -20 -9 -1 6 11 9 27 16 35 15 14 0 14 -1 1 -6z m-85 -49 c-14 -20 -25 -41 -25 -47 0 -6 -2 -8 -5 -5 -3 3 1 21 10 41 12 30 20 38 42 46 1 1 -9 -15 -22 -35z m1669 -20 c16 -6 23 -34 8 -34 -10 0 -32 22 -32 32 0 10 3 10 24 2z m46 -50 c0 -8 -4 -12 -10 -9 -5 3 -10 10 -10 16 0 5 5 9 10 9 6 0 10 -7 10 -16z m-1753 -11 c-4 -3 -7 0 -7 7 0 7 3 10 7 7 3 -4 3 -10 0 -14z m1720 -320 c-4 -3 -10 -3 -14 0 -3 4 0 7 7 7 7 0 10 -3 7 -7z m90 -16 c12 -1 25 -6 29 -10 5 -4 1 -5 -9 -1 -13 5 -16 2 -11 -10 8 -21 4 -20 -47 10 -39 23 -41 25 -14 19 17 -3 40 -7 52 -8z m430 -64 c-3 -10 -5 -2 -5 17 0 19 2 27 5 18 2 -10 2 -26 0 -35z m-10 -40 c-4 -3 -7 0 -7 7 0 7 3 10 7 7 3 -4 3 -10 0 -14z m-907 -147 c33 -12 30 -13 -70 -20 -72 -4 -122 -2 -160 6 l-55 13 80 6 c131 9 168 8 205 -5z"/>
 </g>
<g id="layer112" fill="#929292" stroke="none">
 <path d="M0 760 l0 -760 1305 0 1305 0 0 760 0 760 -1305 0 -1305 0 0 -760z m1375 550 c-11 -5 -29 -8 -40 -8 -16 0 -15 2 5 8 34 11 60 11 35 0z m137 -3 c7 -7 32 -24 54 -38 23 -13 211 -136 418 -273 362 -241 377 -252 401 -300 16 -31 25 -65 24 -90 l-2 -41 -6 41 c-9 56 -50 118 -78 120 -29 2 -34 4 -29 13 3 5 -5 12 -19 15 -14 4 -25 11 -25 16 0 6 -6 10 -12 10 -7 0 -37 18 -66 40 -29 22 -55 40 -58 40 -3 0 -26 14 -51 30 -24 17 -49 28 -54 25 -5 -3 -7 0 -4 7 2 8 -19 24 -56 42 -32 16 -59 33 -59 38 0 4 -5 8 -11 8 -6 0 -30 14 -54 30 -24 17 -49 30 -55 30 -6 0 -8 5 -5 10 3 6 0 10 -9 10 -8 0 -28 11 -44 25 -17 14 -34 25 -39 25 -17 0 -113 67 -106 74 4 4 0 4 -9 1 -12 -5 -24 5 -44 37 -15 24 -31 45 -35 46 -5 2 -9 8 -9 13 0 13 27 11 42 -4z m-235 -13 c-3 -3 -12 -4 -19 -1 -8 3 -5 6 6 6 11 1 17 -2 13 -5z m-44 -11 c-7 -2 -19 -2 -25 0 -7 3 -2 5 12 5 14 0 19 -2 13 -5z m235 -18 c48 -61 53 -207 12 -318 -18 -48 -28 -61 -56 -73 -117 -49 -538 -147 -869 -204 -298 -50 -351 -55 -379 -37 -29 20 -40 85 -27 167 l9 55 1 -77 c1 -89 14 -124 47 -132 61 -16 670 101 1054 202 165 43 168 45 192 99 39 87 36 259 -4 303 -19 20 -26 21 -87 15 -36 -4 -68 -8 -72 -10 -10 -7 -233 -44 -237 -41 -5 5 21 12 93 26 33 7 101 20 150 30 130 25 150 25 173 -5z m-279 11 c-7 -7 -211 -47 -215 -43 -3 2 37 14 88 25 89 19 136 26 127 18z m-234 -52 c-30 -12 -448 -114 -452 -111 -4 5 41 18 272 77 125 32 219 50 180 34z m478 -64 c9 -60 -6 -178 -26 -203 -7 -8 -36 -22 -65 -30 -50 -14 -53 -14 -63 5 -20 37 -22 130 -5 198 9 35 18 66 21 68 8 9 71 20 100 19 28 -2 30 -5 38 -57z m-543 9 c-85 -21 -161 -38 -169 -37 -20 4 258 76 294 76 17 0 -40 -17 -125 -39z m674 -30 c8 -12 19 -18 24 -15 5 3 16 -1 23 -10 7 -8 33 -27 58 -41 25 -15 58 -40 73 -56 15 -16 31 -26 36 -23 14 9 62 -40 62 -64 0 -12 -4 -18 -10 -15 -5 3 -10 15 -10 26 0 16 -5 19 -20 14 -11 -4 -20 -2 -20 4 0 6 -7 11 -16 11 -9 0 -39 14 -66 30 -26 17 -55 30 -62 30 -8 0 -17 6 -19 13 -4 9 -8 8 -16 -3 -9 -12 -11 -11 -11 9 0 16 -4 21 -15 17 -9 -3 -15 0 -15 8 0 8 -4 16 -10 18 -5 2 -12 18 -16 36 -8 37 7 43 30 11z m-879 -19 c-11 -5 -29 -8 -40 -8 -16 0 -15 2 5 8 34 11 60 11 35 0z m-198 -16 c-3 -3 -12 -4 -19 -1 -8 3 -5 6 6 6 11 1 17 -2 13 -5z m123 -4 c-8 -5 -22 -10 -30 -10 -13 0 -13 1 0 10 8 5 22 10 30 10 13 0 13 -1 0 -10z m-175 -10 c-27 -12 -43 -12 -25 0 8 5 22 9 30 9 10 0 8 -3 -5 -9z m110 -10 c-11 -5 -27 -9 -35 -9 -13 -1 -13 0 0 9 8 5 24 9 35 9 l20 0 -20 -9z m-195 -16 c-56 -17 -64 -17 -25 1 17 8 39 14 50 14 11 0 0 -7 -25 -15z m105 -9 c-16 -8 -37 -14 -45 -14 -8 0 1 7 20 14 46 18 64 17 25 0z m-168 -12 c-4 -3 -10 -3 -14 0 -3 4 0 7 7 7 7 0 10 -3 7 -7z m-27 -7 c0 -2 -7 -7 -16 -10 -8 -3 -12 -2 -9 4 6 10 25 14 25 6z m117 -3 c-4 -3 -10 -3 -14 0 -3 4 0 7 7 7 7 0 10 -3 7 -7z m-177 -17 c0 -2 -8 -10 -17 -17 -16 -13 -17 -12 -4 4 13 16 21 21 21 13z m90 -13 c-8 -3 -24 -10 -35 -15 -20 -9 -20 -9 -1 6 11 9 27 16 35 15 14 0 14 -1 1 -6z m-85 -49 c-14 -20 -25 -41 -25 -47 0 -6 -2 -8 -5 -5 -3 3 1 21 10 41 12 30 20 38 42 46 1 1 -9 -15 -22 -35z m1669 -20 c16 -6 23 -34 8 -34 -10 0 -32 22 -32 32 0 10 3 10 24 2z m46 -50 c0 -8 -4 -12 -10 -9 -5 3 -10 10 -10 16 0 5 5 9 10 9 6 0 10 -7 10 -16z m-1753 -11 c-4 -3 -7 0 -7 7 0 7 3 10 7 7 3 -4 3 -10 0 -14z m1720 -320 c-4 -3 -10 -3 -14 0 -3 4 0 7 7 7 7 0 10 -3 7 -7z m90 -16 c12 -1 25 -6 29 -10 5 -4 1 -5 -9 -1 -13 5 -16 2 -11 -10 8 -21 4 -20 -47 10 -39 23 -41 25 -14 19 17 -3 40 -7 52 -8z m430 -64 c-3 -10 -5 -2 -5 17 0 19 2 27 5 18 2 -10 2 -26 0 -35z m-10 -40 c-4 -3 -7 0 -7 7 0 7 3 10 7 7 3 -4 3 -10 0 -14z m-907 -147 c33 -12 30 -13 -70 -20 -72 -4 -122 -2 -160 6 l-55 13 80 6 c131 9 168 8 205 -5z"/>
 <path d="M1307 1162 c-15 -24 -17 -149 -3 -161 11 -9 15 -5 20 20 12 62 -1 168 -17 141z"/>
 <path d="M1290 970 c0 -7 3 -10 7 -7 3 4 3 10 0 14 -4 3 -7 0 -7 -7z"/>
 </g>
<g id="layer113" fill="#9ea5a1" stroke="none">
 <path d="M0 760 l0 -760 1305 0 1305 0 0 760 0 760 -1305 0 -1305 0 0 -760z m1404 561 c6 -10 -82 -26 -92 -17 -3 3 6 6 19 6 13 0 31 5 39 10 19 12 27 12 34 1z m116 -16 c22 -14 47 -25 55 -25 10 0 13 -5 9 -12 -4 -7 -3 -8 4 -4 11 7 20 2 57 -31 7 -7 18 -13 24 -13 5 0 16 -8 23 -17 7 -10 20 -19 28 -21 8 -2 20 -10 27 -19 13 -17 59 -43 77 -43 6 0 19 -8 28 -17 26 -28 46 -43 57 -43 5 0 13 -5 17 -12 5 -7 3 -8 -6 -3 -9 5 -11 4 -6 -4 4 -6 12 -9 17 -6 5 3 21 -5 35 -19 15 -14 33 -22 42 -18 9 3 13 1 9 -5 -3 -5 6 -16 21 -24 15 -8 31 -20 35 -26 4 -7 12 -13 18 -13 9 0 20 -8 53 -37 8 -7 16 -9 20 -6 3 4 6 1 6 -6 0 -8 6 -11 16 -7 9 3 12 2 9 -5 -4 -6 2 -13 14 -16 12 -3 21 -9 21 -14 0 -5 6 -9 13 -9 8 0 22 -9 32 -20 10 -11 20 -18 22 -16 10 10 84 -74 97 -110 18 -51 27 -142 15 -150 -5 -3 -9 16 -9 41 0 64 -25 113 -67 130 -18 8 -36 14 -40 14 -3 -1 -9 3 -12 8 -8 11 -69 53 -77 53 -3 0 -20 10 -37 23 -68 48 -126 79 -143 75 -8 -2 26 -30 76 -62 49 -33 90 -63 90 -67 0 -4 12 -10 27 -13 31 -8 68 -52 69 -83 1 -19 -3 -22 -20 -17 -12 4 -22 11 -24 15 -2 5 -10 9 -18 9 -8 0 -27 8 -42 19 -42 29 -84 54 -127 77 -60 32 -86 47 -132 77 -24 15 -47 27 -52 27 -5 0 -16 6 -23 13 -7 8 -50 32 -95 54 -45 23 -95 50 -112 62 -16 12 -34 21 -40 21 -6 0 -11 4 -11 10 0 5 -7 7 -15 4 -9 -4 -15 0 -15 10 0 9 -5 16 -11 16 -5 0 -7 -5 -3 -12 4 -6 3 -8 -3 -5 -6 4 -11 44 -11 89 -1 56 2 76 8 63 8 -19 9 -19 9 3 1 12 -4 22 -10 22 -5 0 -16 15 -24 33 -7 18 -23 41 -34 51 -45 41 -19 48 39 11z m-270 -20 c-30 -7 -111 -24 -180 -39 -320 -67 -831 -210 -882 -247 -28 -19 -40 -11 -15 10 31 25 324 113 602 181 94 23 197 48 230 56 99 24 248 52 275 52 14 0 0 -6 -30 -13z m214 -10 c41 -41 58 -185 32 -280 -22 -84 -41 -112 -88 -129 -249 -90 -1119 -263 -1218 -241 -24 5 -32 14 -41 48 -17 62 -5 183 25 250 22 51 28 56 82 77 211 79 798 232 1049 274 110 19 141 19 159 1z m-49 -525 c3 -5 1 -10 -4 -10 -6 0 -11 5 -11 10 0 6 2 10 4 10 3 0 8 -4 11 -10z m45 -10 c0 -5 -7 -10 -16 -10 -8 0 -12 5 -9 10 3 6 10 10 16 10 5 0 9 -4 9 -10z m317 -137 c-4 -3 -10 -3 -14 0 -3 4 0 7 7 7 7 0 10 -3 7 -7z m133 -23 c61 -18 120 -58 120 -81 0 -15 -54 -2 -100 25 -25 14 -52 26 -60 26 -27 1 -94 37 -79 43 25 10 51 7 119 -13z m-1505 -20 c3 -5 4 -10 1 -10 -3 0 -8 5 -11 10 -3 6 -4 10 -1 10 3 0 8 -4 11 -10z m1990 -121 c-8 -19 -13 -25 -9 -14 3 11 9 38 12 60 5 32 7 35 10 14 2 -15 -4 -42 -13 -60z m-48 -66 c-4 -3 -10 -3 -14 0 -3 4 0 7 7 7 7 0 10 -3 7 -7z m-30 -10 c-4 -3 -10 -3 -14 0 -3 4 0 7 7 7 7 0 10 -3 7 -7z m-40 -10 c-4 -3 -10 -3 -14 0 -3 4 0 7 7 7 7 0 10 -3 7 -7z m-100 -20 c-4 -3 -10 -3 -14 0 -3 4 0 7 7 7 7 0 10 -3 7 -7z m-40 -10 c-4 -3 -10 -3 -14 0 -3 4 0 7 7 7 7 0 10 -3 7 -7z m-120 -20 c-4 -3 -10 -3 -14 0 -3 4 0 7 7 7 7 0 10 -3 7 -7z m-532 -15 c39 -12 38 -12 -65 -21 -78 -6 -119 -5 -160 5 l-55 13 75 6 c131 10 164 9 205 -3z"/>
 <path d="M1560 1180 c0 -5 5 -10 10 -10 6 0 10 5 10 10 0 6 -4 10 -10 10 -5 0 -10 -4 -10 -10z"/>
 <path d="M1590 1166 c0 -8 14 -20 30 -28 17 -7 30 -16 30 -20 0 -5 6 -8 13 -8 10 1 -3 14 -60 61 -9 7 -13 6 -13 -5z"/>
 <path d="M1705 1082 c40 -24 68 -34 60 -22 -3 6 -13 10 -21 10 -8 0 -17 7 -20 15 -4 8 -16 15 -28 15 -18 0 -17 -2 9 -18z"/>
 <path d="M1795 1021 c22 -10 46 -25 54 -34 7 -10 17 -17 22 -17 5 0 31 -15 57 -34 27 -18 59 -37 73 -41 13 -4 0 9 -30 29 -30 19 -57 39 -60 43 -8 11 -62 43 -83 50 -10 3 -18 9 -18 14 0 5 -12 9 -27 9 -26 0 -25 -2 12 -19z"/>
 <path d="M1365 1264 c-11 -3 -60 -11 -110 -20 -49 -8 -106 -19 -125 -24 -19 -5 -98 -23 -175 -41 -367 -83 -684 -177 -738 -219 -36 -29 -60 -116 -55 -204 5 -103 12 -110 113 -103 84 7 466 73 620 108 362 83 505 123 533 149 58 55 70 283 17 336 -23 23 -37 26 -80 18z m70 -119 c5 -50 3 -92 -5 -123 -7 -26 -14 -54 -16 -63 -3 -10 -23 -21 -52 -28 -26 -7 -54 -14 -63 -17 -45 -13 -52 206 -10 275 9 14 119 42 133 35 3 -2 9 -38 13 -79z"/>
 <path d="M1307 1162 c-15 -24 -17 -149 -3 -161 11 -9 15 -5 20 20 12 62 -1 168 -17 141z"/>
 <path d="M1290 970 c0 -7 3 -10 7 -7 3 4 3 10 0 14 -4 3 -7 0 -7 -7z"/>
 </g>
<g id="layer114" fill="#9ee067" stroke="none">
 <path d="M0 760 l0 -760 1305 0 1305 0 0 760 0 760 -1305 0 -1305 0 0 -760z m1520 564 c19 -3 44 -14 56 -25 11 -10 26 -19 32 -19 7 0 12 -4 12 -10 0 -5 6 -10 14 -10 8 0 16 -4 18 -8 2 -4 20 -18 41 -31 20 -12 37 -27 37 -33 0 -6 7 -8 15 -4 8 3 15 2 15 -2 0 -4 23 -21 50 -37 28 -16 50 -33 50 -37 0 -4 7 -8 15 -8 8 0 15 -4 15 -9 0 -5 12 -15 28 -22 44 -23 177 -111 180 -120 2 -5 12 -9 23 -9 10 0 19 -4 19 -8 0 -4 40 -35 90 -67 49 -33 90 -63 90 -67 0 -5 6 -8 13 -8 21 0 80 -71 69 -82 -7 -7 -7 -19 0 -37 24 -62 7 -271 -22 -271 -5 0 -2 16 6 35 33 79 8 249 -35 238 -18 -4 -21 -28 -8 -50 10 -16 -2 -43 -19 -43 -16 0 -74 29 -169 85 -33 20 -85 49 -115 65 -30 17 -68 39 -85 49 -45 28 -156 91 -160 91 -2 0 -23 13 -47 29 -24 16 -63 38 -88 51 -80 38 -100 51 -100 61 0 6 -4 8 -9 5 -13 -8 -20 28 -22 119 -2 82 -20 137 -54 165 -22 18 -75 14 -211 -15 -61 -13 -158 -34 -215 -45 -147 -30 -613 -152 -744 -195 -60 -20 -118 -44 -127 -52 -10 -9 -18 -11 -18 -6 0 6 6 16 14 22 17 14 200 81 241 88 17 3 32 8 35 11 3 4 12 8 20 9 8 0 67 15 130 33 63 17 122 32 130 34 51 8 96 20 105 27 6 4 27 10 46 12 20 2 40 7 46 10 5 3 34 10 64 16 30 5 88 18 128 29 41 12 79 18 85 15 5 -3 6 -2 3 4 -4 6 5 10 21 10 15 1 43 3 62 7 81 13 156 22 175 19 11 -1 36 -5 55 -9z m-36 -79 c17 -33 21 -58 21 -145 0 -97 -2 -110 -30 -165 -30 -58 -31 -59 -100 -81 -150 -48 -244 -74 -345 -94 -58 -12 -168 -35 -245 -51 -215 -45 -561 -95 -598 -85 -37 9 -51 61 -44 160 6 85 26 158 54 188 23 26 320 118 653 202 317 80 499 116 569 113 41 -2 46 -5 65 -42z m-237 -452 c-4 -3 -10 -3 -14 0 -3 4 0 7 7 7 7 0 10 -3 7 -7z m211 -44 c21 1 31 -2 27 -9 -12 -20 -95 -9 -95 12 0 6 8 7 18 3 9 -4 32 -7 50 -6z m386 -145 c69 -14 155 -51 182 -78 21 -22 17 -41 -11 -54 -21 -10 -26 -9 -35 8 -14 26 -99 65 -205 94 -49 14 -83 25 -75 26 11 0 10 4 -5 16 -19 14 -16 15 30 9 28 -4 81 -14 119 -21z m-1439 -44 c3 -5 1 -10 -4 -10 -6 0 -11 5 -11 10 0 6 2 10 4 10 3 0 8 -4 11 -10z m55 -4 c0 -2 -7 -6 -15 -10 -8 -3 -15 -1 -15 4 0 6 7 10 15 10 8 0 15 -2 15 -4z m1895 -181 c-17 -7 -48 -16 -70 -19 -31 -5 -26 -2 20 13 71 22 92 25 50 6z m-135 -35 c-14 -4 -34 -8 -45 -8 -16 0 -15 2 5 8 14 4 34 8 45 8 16 0 15 -2 -5 -8z m-83 -16 c-3 -3 -12 -4 -19 -1 -8 3 -5 6 6 6 11 1 17 -2 13 -5z m-64 -11 c-7 -2 -19 -2 -25 0 -7 3 -2 5 12 5 14 0 19 -2 13 -5z m-46 -9 c-3 -3 -12 -4 -19 -1 -8 3 -5 6 6 6 11 1 17 -2 13 -5z m-532 -18 c28 -12 22 -13 -78 -20 -77 -5 -124 -4 -165 6 l-57 13 70 6 c124 10 199 8 230 -5z m462 7 c-4 -3 -10 -3 -14 0 -3 4 0 7 7 7 7 0 10 -3 7 -7z m-60 -9 c-3 -3 -12 -4 -19 -1 -8 3 -5 6 6 6 11 1 17 -2 13 -5z m-60 -10 c-3 -3 -12 -4 -19 -1 -8 3 -5 6 6 6 11 1 17 -2 13 -5z"/>
 <path d="M2320 600 c0 -7 3 -10 7 -7 3 4 3 10 0 14 -4 3 -7 0 -7 -7z"/>
 <path d="M1378 1264 c-3 -2 -67 -15 -144 -29 -367 -68 -963 -229 -1012 -275 -12 -12 -29 -38 -38 -58 -21 -48 -24 -198 -5 -231 13 -23 17 -23 85 -18 223 20 803 140 1106 230 56 16 84 55 98 135 17 97 -7 241 -41 243 -7 0 -20 2 -29 4 -9 2 -18 1 -20 -1z m60 -59 c11 -107 10 -179 -4 -192 -7 -8 -14 -20 -14 -26 0 -7 4 -6 10 3 5 8 10 10 10 5 0 -23 -33 -55 -68 -65 -84 -25 -89 -24 -103 17 -15 46 -14 150 2 204 16 51 61 77 135 75 23 0 31 -5 32 -21z"/>
 <path d="M1306 1162 c-12 -20 -16 -151 -5 -158 16 -9 22 2 26 53 6 54 -9 125 -21 105z"/>
 <path d="M1290 970 c0 -7 3 -10 7 -7 3 4 3 10 0 14 -4 3 -7 0 -7 -7z"/>
 </g>
<g id="layer115" fill="#a7d98e" stroke="none">
 <path d="M0 760 l0 -760 1305 0 1305 0 0 760 0 760 -1305 0 -1305 0 0 -760z m1520 564 c19 -3 44 -14 56 -25 11 -10 26 -19 32 -19 7 0 12 -4 12 -10 0 -5 6 -10 14 -10 8 0 16 -4 18 -8 2 -4 20 -18 41 -31 20 -12 37 -27 37 -33 0 -6 7 -8 15 -4 8 3 15 2 15 -2 0 -4 23 -21 50 -37 28 -16 50 -33 50 -37 0 -4 7 -8 15 -8 8 0 15 -4 15 -9 0 -5 12 -15 28 -22 44 -23 177 -111 180 -120 2 -5 12 -9 23 -9 10 0 19 -4 19 -8 0 -4 40 -35 90 -67 49 -33 90 -63 90 -67 0 -5 6 -8 13 -8 21 0 80 -71 69 -82 -7 -7 -7 -19 0 -37 24 -62 7 -271 -22 -271 -5 0 -2 16 6 35 33 79 8 249 -35 238 -18 -4 -21 -28 -8 -50 10 -16 -2 -43 -19 -43 -16 0 -74 29 -169 85 -33 20 -85 49 -115 65 -30 17 -68 39 -85 49 -45 28 -156 91 -160 91 -2 0 -23 13 -47 29 -24 16 -63 38 -88 51 -80 38 -100 51 -100 61 0 6 -4 8 -9 5 -13 -8 -20 28 -22 119 -2 82 -20 137 -54 165 -22 18 -75 14 -211 -15 -61 -13 -158 -34 -215 -45 -147 -30 -613 -152 -744 -195 -60 -20 -118 -44 -127 -52 -10 -9 -18 -11 -18 -6 0 6 6 16 14 22 17 14 200 81 241 88 17 3 32 8 35 11 3 4 12 8 20 9 8 0 67 15 130 33 63 17 122 32 130 34 51 8 96 20 105 27 6 4 27 10 46 12 20 2 40 7 46 10 5 3 34 10 64 16 30 5 88 18 128 29 41 12 79 18 85 15 5 -3 6 -2 3 4 -4 6 5 10 21 10 15 1 43 3 62 7 81 13 156 22 175 19 11 -1 36 -5 55 -9z m-36 -79 c17 -33 21 -58 21 -145 0 -97 -2 -110 -30 -165 -30 -58 -31 -59 -100 -81 -150 -48 -244 -74 -345 -94 -58 -12 -168 -35 -245 -51 -215 -45 -561 -95 -598 -85 -37 9 -51 61 -44 160 6 85 26 158 54 188 23 26 320 118 653 202 317 80 499 116 569 113 41 -2 46 -5 65 -42z m-237 -452 c-4 -3 -10 -3 -14 0 -3 4 0 7 7 7 7 0 10 -3 7 -7z m211 -44 c21 1 31 -2 27 -9 -12 -20 -95 -9 -95 12 0 6 8 7 18 3 9 -4 32 -7 50 -6z m386 -145 c69 -14 155 -51 182 -78 21 -22 17 -41 -11 -54 -21 -10 -26 -9 -35 8 -14 26 -99 65 -205 94 -49 14 -83 25 -75 26 11 0 10 4 -5 16 -19 14 -16 15 30 9 28 -4 81 -14 119 -21z m-1439 -44 c3 -5 1 -10 -4 -10 -6 0 -11 5 -11 10 0 6 2 10 4 10 3 0 8 -4 11 -10z m55 -4 c0 -2 -7 -6 -15 -10 -8 -3 -15 -1 -15 4 0 6 7 10 15 10 8 0 15 -2 15 -4z m1895 -181 c-17 -7 -48 -16 -70 -19 -31 -5 -26 -2 20 13 71 22 92 25 50 6z m-135 -35 c-14 -4 -34 -8 -45 -8 -16 0 -15 2 5 8 14 4 34 8 45 8 16 0 15 -2 -5 -8z m-83 -16 c-3 -3 -12 -4 -19 -1 -8 3 -5 6 6 6 11 1 17 -2 13 -5z m-64 -11 c-7 -2 -19 -2 -25 0 -7 3 -2 5 12 5 14 0 19 -2 13 -5z m-46 -9 c-3 -3 -12 -4 -19 -1 -8 3 -5 6 6 6 11 1 17 -2 13 -5z m-532 -18 c28 -12 22 -13 -78 -20 -77 -5 -124 -4 -165 6 l-57 13 70 6 c124 10 199 8 230 -5z m462 7 c-4 -3 -10 -3 -14 0 -3 4 0 7 7 7 7 0 10 -3 7 -7z m-60 -9 c-3 -3 -12 -4 -19 -1 -8 3 -5 6 6 6 11 1 17 -2 13 -5z m-60 -10 c-3 -3 -12 -4 -19 -1 -8 3 -5 6 6 6 11 1 17 -2 13 -5z"/>
 <path d="M2320 600 c0 -7 3 -10 7 -7 3 4 3 10 0 14 -4 3 -7 0 -7 -7z"/>
 <path d="M1378 1264 c-3 -2 -67 -15 -144 -29 -367 -68 -963 -229 -1012 -275 -12 -12 -29 -38 -38 -58 -21 -48 -24 -198 -5 -231 13 -23 17 -23 85 -18 223 20 803 140 1106 230 56 16 84 55 98 135 17 97 -7 241 -41 243 -7 0 -20 2 -29 4 -9 2 -18 1 -20 -1z m60 -59 c11 -107 10 -179 -4 -192 -7 -8 -14 -20 -14 -26 0 -7 4 -6 10 3 5 8 10 10 10 5 0 -23 -33 -55 -68 -65 -84 -25 -89 -24 -103 17 -15 46 -14 150 2 204 16 51 61 77 135 75 23 0 31 -5 32 -21z"/>
 <path d="M1294 1031 c3 -23 26 -44 26 -24 0 4 3 18 6 30 5 18 2 22 -14 20 -15 -1 -20 -7 -18 -26z"/>
 <path d="M1290 970 c0 -7 3 -10 7 -7 3 4 3 10 0 14 -4 3 -7 0 -7 -7z"/>
 </g>
<g id="layer116" fill="#b3b3b3" stroke="none">
 <path d="M0 760 l0 -760 1305 0 1305 0 0 760 0 760 -1305 0 -1305 0 0 -760z m1520 564 c19 -3 44 -14 56 -25 11 -10 26 -19 32 -19 7 0 12 -4 12 -10 0 -5 6 -10 14 -10 8 0 16 -4 18 -8 2 -4 20 -18 41 -31 20 -12 37 -27 37 -33 0 -6 7 -8 15 -4 8 3 15 2 15 -2 0 -4 23 -21 50 -37 28 -16 50 -33 50 -37 0 -4 7 -8 15 -8 8 0 15 -4 15 -9 0 -5 12 -15 28 -22 44 -23 177 -111 180 -120 2 -5 12 -9 23 -9 10 0 19 -4 19 -8 0 -4 40 -35 90 -67 49 -33 90 -63 90 -67 0 -5 6 -8 13 -8 21 0 80 -71 69 -82 -7 -7 -7 -19 0 -37 24 -62 7 -271 -22 -271 -5 0 -2 16 6 35 33 79 8 249 -35 238 -18 -4 -21 -28 -8 -50 10 -16 -2 -43 -19 -43 -16 0 -74 29 -169 85 -33 20 -85 49 -115 65 -30 17 -68 39 -85 49 -45 28 -156 91 -160 91 -2 0 -23 13 -47 29 -24 16 -63 38 -88 51 -80 38 -100 51 -100 61 0 6 -4 8 -9 5 -13 -8 -20 28 -22 119 -2 82 -20 137 -54 165 -22 18 -75 14 -211 -15 -61 -13 -158 -34 -215 -45 -147 -30 -613 -152 -744 -195 -60 -20 -118 -44 -127 -52 -10 -9 -18 -11 -18 -6 0 6 6 16 14 22 17 14 200 81 241 88 17 3 32 8 35 11 3 4 12 8 20 9 8 0 67 15 130 33 63 17 122 32 130 34 51 8 96 20 105 27 6 4 27 10 46 12 20 2 40 7 46 10 5 3 34 10 64 16 30 5 88 18 128 29 41 12 79 18 85 15 5 -3 6 -2 3 4 -4 6 5 10 21 10 15 1 43 3 62 7 81 13 156 22 175 19 11 -1 36 -5 55 -9z m-36 -79 c17 -33 21 -58 21 -145 0 -97 -2 -110 -30 -165 -30 -58 -31 -59 -100 -81 -150 -48 -244 -74 -345 -94 -58 -12 -168 -35 -245 -51 -215 -45 -561 -95 -598 -85 -37 9 -51 61 -44 160 6 85 26 158 54 188 23 26 320 118 653 202 317 80 499 116 569 113 41 -2 46 -5 65 -42z m-237 -452 c-4 -3 -10 -3 -14 0 -3 4 0 7 7 7 7 0 10 -3 7 -7z m211 -44 c21 1 31 -2 27 -9 -12 -20 -95 -9 -95 12 0 6 8 7 18 3 9 -4 32 -7 50 -6z m386 -145 c69 -14 155 -51 182 -78 21 -22 17 -41 -11 -54 -21 -10 -26 -9 -35 8 -14 26 -99 65 -205 94 -49 14 -83 25 -75 26 11 0 10 4 -5 16 -19 14 -16 15 30 9 28 -4 81 -14 119 -21z m-1439 -44 c3 -5 1 -10 -4 -10 -6 0 -11 5 -11 10 0 6 2 10 4 10 3 0 8 -4 11 -10z m55 -4 c0 -2 -7 -6 -15 -10 -8 -3 -15 -1 -15 4 0 6 7 10 15 10 8 0 15 -2 15 -4z m1895 -181 c-17 -7 -48 -16 -70 -19 -31 -5 -26 -2 20 13 71 22 92 25 50 6z m-135 -35 c-14 -4 -34 -8 -45 -8 -16 0 -15 2 5 8 14 4 34 8 45 8 16 0 15 -2 -5 -8z m-83 -16 c-3 -3 -12 -4 -19 -1 -8 3 -5 6 6 6 11 1 17 -2 13 -5z m-64 -11 c-7 -2 -19 -2 -25 0 -7 3 -2 5 12 5 14 0 19 -2 13 -5z m-46 -9 c-3 -3 -12 -4 -19 -1 -8 3 -5 6 6 6 11 1 17 -2 13 -5z m-532 -18 c28 -12 22 -13 -78 -20 -77 -5 -124 -4 -165 6 l-57 13 70 6 c124 10 199 8 230 -5z m462 7 c-4 -3 -10 -3 -14 0 -3 4 0 7 7 7 7 0 10 -3 7 -7z m-60 -9 c-3 -3 -12 -4 -19 -1 -8 3 -5 6 6 6 11 1 17 -2 13 -5z m-60 -10 c-3 -3 -12 -4 -19 -1 -8 3 -5 6 6 6 11 1 17 -2 13 -5z"/>
 <path d="M2320 600 c0 -7 3 -10 7 -7 3 4 3 10 0 14 -4 3 -7 0 -7 -7z"/>
 <path d="M1378 1264 c-3 -2 -67 -15 -144 -29 -367 -68 -963 -229 -1012 -275 -12 -12 -29 -38 -38 -58 -21 -48 -24 -198 -5 -231 13 -23 17 -23 85 -18 223 20 803 140 1106 230 56 16 84 55 98 135 17 97 -7 241 -41 243 -7 0 -20 2 -29 4 -9 2 -18 1 -20 -1z m60 -59 c11 -107 10 -179 -4 -192 -7 -8 -14 -20 -14 -26 0 -7 4 -6 10 3 5 8 10 10 10 5 0 -23 -33 -55 -68 -65 -84 -25 -89 -24 -103 17 -12 38 -15 149 -3 187 20 66 35 85 72 88 83 7 98 5 100 -17z"/>
 </g>
<g id="layer117" fill="#bac6b2" stroke="none">
 <path d="M0 760 l0 -760 1305 0 1305 0 0 760 0 760 -1305 0 -1305 0 0 -760z m1578 548 c37 -19 98 -57 135 -84 81 -58 146 -101 167 -110 8 -4 23 -14 33 -22 9 -9 39 -29 66 -46 76 -49 144 -94 166 -111 11 -9 54 -38 95 -64 42 -27 90 -63 109 -80 18 -17 38 -28 44 -24 5 3 7 1 3 -5 -3 -5 -2 -12 4 -14 5 -1 14 -17 19 -35 7 -25 6 -33 -6 -37 -10 -4 -12 -10 -6 -19 6 -6 9 -52 8 -102 -2 -103 -23 -166 -60 -183 -26 -12 -251 -57 -330 -66 -27 -3 34 11 137 33 102 21 191 42 196 45 32 19 59 224 32 241 -6 4 -8 11 -5 16 4 5 1 9 -4 9 -6 0 -11 -20 -11 -44 0 -73 -31 -69 -195 27 -22 13 -76 43 -120 67 -44 23 -91 51 -105 60 -38 27 -99 60 -111 60 -10 0 -62 34 -87 58 -7 6 -19 12 -25 12 -7 0 -36 16 -64 35 -29 19 -59 35 -68 35 -8 0 -15 5 -15 10 0 6 -6 10 -14 10 -27 0 -35 27 -37 130 -2 102 -12 139 -51 188 -14 16 -71 15 -160 -3 -106 -22 -121 -26 -116 -30 2 -2 55 4 118 15 140 22 151 18 176 -67 30 -104 2 -289 -51 -333 -8 -6 -62 -27 -122 -46 -72 -23 -93 -33 -63 -29 69 9 45 -1 -73 -29 -113 -27 -136 -31 -102 -16 53 23 -87 -3 -360 -67 -38 -9 -88 -18 -110 -20 -22 -2 -96 -13 -165 -24 -189 -30 -261 -34 -285 -16 -18 14 -20 27 -19 129 0 125 20 192 66 222 43 27 325 113 577 176 138 34 251 66 251 70 0 9 -85 -9 -260 -57 -69 -18 -138 -36 -155 -39 -49 -10 -326 -90 -388 -114 -42 -16 -64 -31 -78 -54 -10 -17 -19 -26 -19 -21 0 30 41 73 86 89 27 10 53 23 59 27 5 5 18 9 30 9 17 0 18 2 5 11 -12 8 -10 9 10 8 14 -2 41 5 61 13 20 9 68 21 107 28 40 7 72 17 72 22 0 4 11 8 24 8 13 0 37 7 52 15 16 8 37 15 47 15 24 0 146 30 174 43 11 5 27 6 34 2 8 -6 10 -4 4 5 -6 9 -2 10 15 5 15 -5 20 -4 16 4 -5 7 2 11 16 10 13 0 43 5 68 10 115 27 284 61 287 57 3 -2 15 2 29 9 14 7 54 11 100 10 64 -2 86 -8 142 -37z m-218 -488 c-34 -11 -60 -11 -35 0 11 5 29 8 40 8 16 0 15 -2 -5 -8z m30 -14 c0 -3 -5 -8 -12 -12 -7 -4 -8 -3 -4 4 7 12 16 16 16 8z m50 0 c0 -2 -7 -7 -16 -10 -8 -3 -12 -2 -9 4 6 10 25 14 25 6z m21 -56 c24 0 38 -4 34 -10 -8 -12 -92 -13 -99 -1 -4 5 -3 17 0 26 6 16 8 16 16 1 6 -11 23 -16 49 -16z m321 -114 c4 -6 13 -11 20 -12 7 0 20 -3 28 -6 8 -3 35 -11 60 -18 25 -6 69 -26 98 -43 43 -26 52 -36 52 -59 0 -44 -37 -53 -70 -18 -41 43 -110 71 -250 100 -113 24 -129 30 -124 45 4 9 20 15 43 16 20 0 45 4 56 9 24 11 77 2 87 -14z m-1362 -82 c0 -2 -7 -4 -15 -4 -8 0 -15 4 -15 10 0 5 7 7 15 4 8 -4 15 -8 15 -10z m35 -4 c-3 -5 -10 -10 -16 -10 -5 0 -9 5 -9 10 0 6 7 10 16 10 8 0 12 -4 9 -10z m1045 -264 c33 -12 29 -13 -77 -20 -81 -6 -128 -4 -170 6 l-58 13 65 6 c113 10 204 8 240 -5z m463 7 c-7 -2 -21 -2 -30 0 -10 3 -4 5 12 5 17 0 24 -2 18 -5z m-60 -10 c-7 -2 -21 -2 -30 0 -10 3 -4 5 12 5 17 0 24 -2 18 -5z m-60 -10 c-7 -2 -21 -2 -30 0 -10 3 -4 5 12 5 17 0 24 -2 18 -5z m-80 -10 c-7 -2 -19 -2 -25 0 -7 3 -2 5 12 5 14 0 19 -2 13 -5z m-70 -10 c-7 -2 -19 -2 -25 0 -7 3 -2 5 12 5 14 0 19 -2 13 -5z m-76 -9 c-3 -3 -12 -4 -19 -1 -8 3 -5 6 6 6 11 1 17 -2 13 -5z m-94 -11 c-7 -2 -19 -2 -25 0 -7 3 -2 5 12 5 14 0 19 -2 13 -5z"/>
 <path d="M1163 1253 c4 -3 10 -3 14 0 3 4 0 7 -7 7 -7 0 -10 -3 -7 -7z"/>
 <path d="M1282 1242 c-46 -10 -82 -19 -79 -22 3 -3 -17 -6 -43 -7 -75 -2 -605 -135 -823 -205 -54 -18 -108 -42 -121 -54 -41 -41 -63 -209 -37 -278 12 -29 12 -29 79 -23 204 20 733 126 1027 208 128 35 147 44 125 59 -19 13 -33 13 -25 0 6 -10 -11 -14 -58 -11 -17 1 -26 -3 -22 -9 4 -6 -5 -10 -21 -10 -22 0 -25 4 -21 21 3 11 3 28 0 37 -6 13 -8 13 -15 -4 -5 -11 -6 5 -2 40 4 41 2 56 -5 52 -6 -4 -11 -15 -12 -24 -1 -23 -17 26 -17 53 0 16 2 15 8 -5 4 -14 8 -19 9 -12 1 7 6 10 13 6 8 -5 9 0 5 17 -4 13 -7 39 -7 57 0 21 -4 31 -11 26 -6 -3 -8 -18 -5 -33 4 -17 3 -21 -3 -11 -12 22 -23 99 -11 80 9 -14 15 -7 11 14 -1 5 17 6 41 3 40 -5 41 -5 18 8 -22 12 -20 13 24 8 35 -4 47 -3 42 5 -7 12 11 18 69 25 23 3 20 4 -10 5 -22 0 -78 -7 -123 -16z"/>
 <path d="M1058 1233 c7 -3 16 -2 19 1 4 3 -2 6 -13 5 -11 0 -14 -3 -6 -6z"/>
 <path d="M1420 1230 c0 -5 9 -14 20 -20 11 -6 20 -9 20 -8 0 2 -9 11 -20 21 -11 9 -20 13 -20 7z"/>
 <path d="M1460 1170 c0 -7 3 -10 7 -7 3 4 3 10 0 14 -4 3 -7 0 -7 -7z"/>
 <path d="M1252 1120 c0 -14 2 -19 5 -12 2 6 2 18 0 25 -3 6 -5 1 -5 -13z"/>
 <path d="M1455 1040 c3 -5 8 -10 11 -10 3 0 2 5 -1 10 -3 6 -8 10 -11 10 -3 0 -2 -4 1 -10z"/>
 <path d="M1450 980 c0 -7 3 -10 7 -7 3 4 3 10 0 14 -4 3 -7 0 -7 -7z"/>
 <path d="M1760 630 c0 -7 3 -10 7 -7 3 4 3 10 0 14 -4 3 -7 0 -7 -7z"/>
 </g>
<g id="layer118" fill="#c1bfbd" stroke="none">
 <path d="M0 760 l0 -760 1305 0 1305 0 0 760 0 760 -1305 0 -1305 0 0 -760z m1578 548 c37 -19 98 -57 135 -84 81 -58 146 -101 167 -110 8 -4 23 -14 33 -22 9 -9 39 -29 66 -46 76 -49 144 -94 166 -111 11 -9 54 -38 95 -64 42 -27 90 -63 109 -80 18 -17 38 -28 44 -24 5 3 7 1 3 -5 -3 -5 -2 -12 4 -14 5 -1 14 -17 19 -35 7 -25 6 -33 -6 -37 -10 -4 -12 -10 -6 -19 6 -6 9 -52 8 -102 -2 -103 -23 -166 -60 -183 -26 -12 -251 -57 -330 -66 -27 -3 34 11 137 33 102 21 191 42 196 45 32 19 59 224 32 241 -6 4 -8 11 -5 16 4 5 1 9 -4 9 -6 0 -11 -20 -11 -44 0 -73 -31 -69 -195 27 -22 13 -76 43 -120 67 -44 23 -91 51 -105 60 -38 27 -99 60 -111 60 -10 0 -62 34 -87 58 -7 6 -19 12 -25 12 -7 0 -36 16 -64 35 -29 19 -59 35 -68 35 -8 0 -15 5 -15 10 0 6 -6 10 -14 10 -27 0 -35 27 -37 130 -2 102 -12 139 -51 188 -14 16 -71 15 -160 -3 -106 -22 -121 -26 -116 -30 2 -2 55 4 118 15 140 22 151 18 176 -67 30 -104 2 -289 -51 -333 -8 -6 -62 -27 -122 -46 -72 -23 -93 -33 -63 -29 69 9 45 -1 -73 -29 -113 -27 -136 -31 -102 -16 53 23 -87 -3 -360 -67 -38 -9 -88 -18 -110 -20 -22 -2 -96 -13 -165 -24 -189 -30 -261 -34 -285 -16 -18 14 -20 27 -19 129 0 125 20 192 66 222 43 27 325 113 577 176 138 34 251 66 251 70 0 9 -85 -9 -260 -57 -69 -18 -138 -36 -155 -39 -49 -10 -326 -90 -388 -114 -42 -16 -64 -31 -78 -54 -10 -17 -19 -26 -19 -21 0 30 41 73 86 89 27 10 53 23 59 27 5 5 18 9 30 9 17 0 18 2 5 11 -12 8 -10 9 10 8 14 -2 41 5 61 13 20 9 68 21 107 28 40 7 72 17 72 22 0 4 11 8 24 8 13 0 37 7 52 15 16 8 37 15 47 15 24 0 146 30 174 43 11 5 27 6 34 2 8 -6 10 -4 4 5 -6 9 -2 10 15 5 15 -5 20 -4 16 4 -5 7 2 11 16 10 13 0 43 5 68 10 115 27 284 61 287 57 3 -2 15 2 29 9 14 7 54 11 100 10 64 -2 86 -8 142 -37z m-218 -488 c-34 -11 -60 -11 -35 0 11 5 29 8 40 8 16 0 15 -2 -5 -8z m30 -14 c0 -3 -5 -8 -12 -12 -7 -4 -8 -3 -4 4 7 12 16 16 16 8z m50 0 c0 -2 -7 -7 -16 -10 -8 -3 -12 -2 -9 4 6 10 25 14 25 6z m21 -56 c24 0 38 -4 34 -10 -8 -12 -92 -13 -99 -1 -4 5 -3 17 0 26 6 16 8 16 16 1 6 -11 23 -16 49 -16z m321 -114 c4 -6 13 -11 20 -12 7 0 20 -3 28 -6 8 -3 35 -11 60 -18 25 -6 69 -26 98 -43 43 -26 52 -36 52 -59 0 -44 -37 -53 -70 -18 -41 43 -110 71 -250 100 -113 24 -129 30 -124 45 4 9 20 15 43 16 20 0 45 4 56 9 24 11 77 2 87 -14z m-1362 -82 c0 -2 -7 -4 -15 -4 -8 0 -15 4 -15 10 0 5 7 7 15 4 8 -4 15 -8 15 -10z m35 -4 c-3 -5 -10 -10 -16 -10 -5 0 -9 5 -9 10 0 6 7 10 16 10 8 0 12 -4 9 -10z m1045 -264 c33 -12 29 -13 -77 -20 -81 -6 -128 -4 -170 6 l-58 13 65 6 c113 10 204 8 240 -5z m463 7 c-7 -2 -21 -2 -30 0 -10 3 -4 5 12 5 17 0 24 -2 18 -5z m-60 -10 c-7 -2 -21 -2 -30 0 -10 3 -4 5 12 5 17 0 24 -2 18 -5z m-60 -10 c-7 -2 -21 -2 -30 0 -10 3 -4 5 12 5 17 0 24 -2 18 -5z m-80 -10 c-7 -2 -19 -2 -25 0 -7 3 -2 5 12 5 14 0 19 -2 13 -5z m-70 -10 c-7 -2 -19 -2 -25 0 -7 3 -2 5 12 5 14 0 19 -2 13 -5z m-76 -9 c-3 -3 -12 -4 -19 -1 -8 3 -5 6 6 6 11 1 17 -2 13 -5z m-94 -11 c-7 -2 -19 -2 -25 0 -7 3 -2 5 12 5 14 0 19 -2 13 -5z"/>
 <path d="M1163 1253 c4 -3 10 -3 14 0 3 4 0 7 -7 7 -7 0 -10 -3 -7 -7z"/>
 <path d="M1378 1253 c12 -2 32 -2 45 0 12 2 2 4 -23 4 -25 0 -35 -2 -22 -4z"/>
 <path d="M1058 1233 c7 -3 16 -2 19 1 4 3 -2 6 -13 5 -11 0 -14 -3 -6 -6z"/>
 <path d="M1227 1233 c-15 -2 -25 -7 -23 -11 2 -4 -18 -8 -44 -9 -75 -2 -605 -135 -823 -205 -54 -18 -108 -42 -121 -54 -41 -41 -63 -209 -37 -278 12 -29 12 -29 79 -23 204 20 733 126 1027 208 128 35 147 44 125 59 -19 13 -33 13 -25 0 3 -5 -1 -11 -9 -11 -29 -3 -34 -4 -42 -11 -4 -5 -23 -8 -42 -8 -30 0 -34 3 -29 21 3 11 3 28 0 37 -6 13 -8 13 -15 -4 -5 -11 -6 5 -2 40 4 41 2 56 -5 52 -6 -4 -11 -15 -12 -24 -1 -23 -17 26 -17 53 0 16 2 15 8 -5 4 -14 8 -19 9 -12 1 7 6 10 13 6 8 -5 9 0 5 17 -4 13 -7 39 -7 57 0 21 -4 31 -11 26 -6 -3 -8 -18 -5 -33 4 -17 3 -21 -3 -11 -12 22 -23 99 -11 80 9 -13 14 -7 11 13 0 4 14 7 32 7 22 0 28 3 18 9 -11 7 -11 9 0 14 17 6 0 6 -44 0z"/>
 <path d="M1445 1210 c3 -5 8 -10 11 -10 3 0 2 5 -1 10 -3 6 -8 10 -11 10 -3 0 -2 -4 1 -10z"/>
 <path d="M1460 1170 c0 -7 3 -10 7 -7 3 4 3 10 0 14 -4 3 -7 0 -7 -7z"/>
 <path d="M1252 1120 c0 -14 2 -19 5 -12 2 6 2 18 0 25 -3 6 -5 1 -5 -13z"/>
 <path d="M1455 1040 c3 -5 8 -10 11 -10 3 0 2 5 -1 10 -3 6 -8 10 -11 10 -3 0 -2 -4 1 -10z"/>
 <path d="M1450 980 c0 -7 3 -10 7 -7 3 4 3 10 0 14 -4 3 -7 0 -7 -7z"/>
 <path d="M1760 630 c0 -7 3 -10 7 -7 3 4 3 10 0 14 -4 3 -7 0 -7 -7z"/>
 </g>
<g id="layer119" fill="#c5c3bf" stroke="none">
 <path d="M0 760 l0 -760 1305 0 1305 0 0 760 0 760 -1305 0 -1305 0 0 -760z m1505 585 c31 -8 76 -28 101 -45 25 -16 47 -30 50 -30 2 0 52 -33 110 -72 58 -40 113 -78 122 -83 9 -6 63 -42 120 -80 57 -39 111 -74 119 -80 9 -5 24 -15 32 -22 9 -6 66 -45 126 -86 61 -41 109 -80 107 -86 -1 -7 1 -10 6 -7 15 9 47 -47 44 -77 -3 -21 -7 -26 -15 -18 -10 7 -12 -13 -12 -87 0 -117 -21 -184 -63 -201 -60 -24 -510 -105 -546 -98 -18 4 -17 5 4 6 14 1 95 15 180 31 85 17 164 32 175 34 178 32 193 37 212 75 25 53 30 173 8 203 l-17 23 5 -24 c3 -13 3 -37 0 -52 -8 -41 -46 -38 -130 11 -37 22 -102 58 -143 80 -41 23 -109 61 -150 86 -41 24 -90 51 -109 60 -38 17 -94 55 -99 67 -2 4 -11 7 -19 7 -9 0 -39 15 -67 33 -28 17 -54 32 -59 32 -4 0 -12 6 -16 14 -5 7 -13 11 -19 7 -20 -12 -27 19 -33 134 -6 133 -29 195 -76 206 -26 7 -199 -21 -238 -37 -14 -7 -11 -7 13 -3 155 28 207 32 229 18 72 -45 67 -319 -6 -396 -9 -10 -57 -31 -106 -47 -96 -32 -97 -39 -2 -16 50 12 57 12 46 -1 -9 -11 -9 -14 2 -14 10 0 10 -3 1 -12 -9 -9 -15 -8 -28 8 -8 10 -12 13 -8 5 5 -11 3 -13 -10 -8 -10 4 -48 -1 -85 -12 -100 -28 -222 -54 -227 -48 -3 3 9 8 26 12 17 4 30 9 27 11 -2 2 -46 -5 -98 -17 -52 -11 -120 -25 -152 -31 -37 -8 -53 -15 -45 -20 8 -5 -3 -6 -24 -2 -26 4 -38 3 -38 -5 0 -7 -4 -10 -9 -7 -4 3 -23 1 -42 -4 -18 -6 -66 -12 -106 -15 -41 -3 -106 -12 -146 -19 -115 -22 -231 -30 -255 -17 -62 33 -33 304 38 354 12 8 100 41 196 73 96 31 173 58 171 60 -4 4 -209 -52 -292 -80 -88 -30 -116 -47 -130 -79 -8 -18 -14 -25 -15 -17 0 35 38 77 88 95 28 10 50 23 49 29 -1 6 6 10 15 8 10 -2 18 2 18 8 0 5 9 10 20 10 11 0 20 5 20 11 0 6 10 9 23 8 12 -1 36 4 52 11 17 7 108 32 204 56 96 24 180 49 188 55 7 7 16 9 19 6 3 -3 20 -1 37 4 66 19 299 69 322 69 14 0 25 5 25 11 0 7 10 9 25 5 14 -4 25 -3 25 2 0 4 12 9 28 10 22 2 113 15 144 21 4 0 32 -6 63 -14z m-55 -509 c0 -3 -5 -8 -12 -12 -7 -4 -8 -3 -4 4 7 12 16 16 16 8z m27 -22 c-3 -3 -12 -4 -19 -1 -8 3 -5 6 6 6 11 1 17 -2 13 -5z m-53 -29 c-14 -22 -14 -25 -1 -31 24 -9 62 0 60 14 -2 6 6 12 17 12 11 0 20 -2 20 -5 0 -9 -34 -42 -50 -48 -8 -4 -1 -5 15 -4 19 1 30 8 30 17 0 12 10 14 45 11 25 -1 46 -7 48 -12 2 -4 19 -11 38 -15 19 -3 34 -12 34 -19 0 -15 83 -47 121 -48 14 0 26 -5 26 -12 0 -7 -10 -10 -25 -7 -17 3 -23 1 -18 -7 4 -6 12 -9 17 -6 5 4 14 3 21 -1 7 -4 25 -9 42 -11 16 -2 35 -8 43 -14 10 -9 13 -8 13 0 0 8 6 7 16 -3 8 -9 26 -16 39 -16 25 0 46 -19 23 -21 -7 0 -1 -5 15 -11 16 -6 27 -17 27 -28 0 -16 25 -35 41 -32 3 1 4 -10 1 -23 -2 -14 -8 -22 -13 -20 -4 3 -6 12 -3 19 3 7 -1 16 -9 19 -9 3 -14 -1 -13 -11 1 -11 -8 -18 -24 -20 -19 -2 -37 8 -67 36 -41 39 -109 66 -233 92 -113 24 -129 30 -124 45 3 8 24 16 47 18 28 2 19 4 -28 5 -97 3 -175 13 -175 23 0 5 7 9 15 9 8 0 15 5 15 10 0 10 -9 13 -50 12 -20 -1 -21 0 -5 5 43 11 40 25 -5 20 -25 -3 -36 -3 -26 0 14 3 15 7 7 13 -17 10 13 70 34 70 13 0 13 -3 -1 -25z m90 17 c2 -4 -4 -9 -15 -9 -11 -1 -17 2 -14 8 7 11 22 12 29 1z m-47 -17 c0 -8 -9 -15 -19 -15 -16 0 -17 2 -6 15 17 19 25 19 25 0z m-87 -9 c0 -3 -4 -8 -10 -11 -5 -3 -10 -1 -10 4 0 6 5 11 10 11 6 0 10 -2 10 -4z m-415 -46 c-3 -5 -12 -10 -18 -10 -7 0 -6 4 3 10 19 12 23 12 15 0z m42 3 c-4 -3 -10 -3 -14 0 -3 4 0 7 7 7 7 0 10 -3 7 -7z m-84 -20 c-7 -2 -19 -2 -25 0 -7 3 -2 5 12 5 14 0 19 -2 13 -5z m-56 -10 c-4 -3 -10 -3 -14 0 -3 4 0 7 7 7 7 0 10 -3 7 -7z m-270 -50 c-4 -3 -10 -3 -14 0 -3 4 0 7 7 7 7 0 10 -3 7 -7z m-183 -92 c3 -5 16 -7 28 -3 15 4 19 2 13 -7 -4 -8 -17 -10 -34 -6 -32 8 -52 25 -29 25 9 0 19 -4 22 -9z m381 -1 c-3 -5 -11 -10 -16 -10 -6 0 -7 5 -4 10 3 6 11 10 16 10 6 0 7 -4 4 -10z m1395 -141 c0 -5 -7 -12 -15 -15 -8 -4 -13 -10 -10 -14 3 -5 -6 -3 -20 3 -31 15 -31 21 -2 34 24 11 47 7 47 -8z m33 -26 c-7 -2 -19 -2 -25 0 -7 3 -2 5 12 5 14 0 19 -2 13 -5z m-96 -10 c-4 -3 -10 -3 -14 0 -3 4 0 7 7 7 7 0 10 -3 7 -7z m111 -10 c-10 -2 -28 -2 -40 0 -13 2 -5 4 17 4 22 1 32 -1 23 -4z m-121 -20 c-4 -3 -10 -3 -14 0 -3 4 0 7 7 7 7 0 10 -3 7 -7z m-1120 -50 c-4 -3 -10 -3 -14 0 -3 4 0 7 7 7 7 0 10 -3 7 -7z m503 -17 c33 -13 30 -14 -76 -21 -80 -5 -127 -3 -170 6 l-59 14 65 6 c112 10 204 8 240 -5z m268 -23 c-10 -2 -26 -2 -35 0 -10 3 -2 5 17 5 19 0 27 -2 18 -5z m-70 -10 c-10 -2 -26 -2 -35 0 -10 3 -2 5 17 5 19 0 27 -2 18 -5z m-75 -10 c-7 -2 -21 -2 -30 0 -10 3 -4 5 12 5 17 0 24 -2 18 -5z m-416 -10 c-4 -3 -10 -3 -14 0 -3 4 0 7 7 7 7 0 10 -3 7 -7z m321 0 c-10 -2 -26 -2 -35 0 -10 3 -2 5 17 5 19 0 27 -2 18 -5z m-120 -10 c-10 -2 -26 -2 -35 0 -10 3 -2 5 17 5 19 0 27 -2 18 -5z"/>
 <path d="M1373 1253 c9 -2 25 -2 35 0 9 3 1 5 -18 5 -19 0 -27 -2 -17 -5z"/>
 <path d="M1063 1233 c4 -3 10 -3 14 0 3 4 0 7 -7 7 -7 0 -10 -3 -7 -7z"/>
 <path d="M1263 1233 c4 -3 10 -3 14 0 3 4 0 7 -7 7 -7 0 -10 -3 -7 -7z"/>
 <path d="M865 1195 c-71 -19 -137 -37 -145 -39 -8 -3 -19 -5 -24 -5 -5 -1 -6 -4 -3 -7 8 -8 317 68 317 79 0 10 0 10 -145 -28z"/>
 <path d="M1203 1223 c3 -5 -17 -9 -43 -10 -79 -3 -753 -172 -845 -212 -11 -5 -34 -14 -52 -21 -41 -15 -67 -46 -81 -96 -16 -54 -17 -171 -3 -208 12 -29 12 -29 79 -22 154 14 432 66 742 137 278 64 405 101 405 119 0 7 -6 15 -14 18 -8 3 -11 0 -8 -5 7 -10 -54 -31 -103 -36 -23 -2 -25 1 -23 38 1 32 0 36 -8 20 -7 -15 -8 -7 -4 27 2 26 0 50 -5 53 -6 3 -10 -2 -11 -12 0 -10 -5 -3 -10 15 -6 19 -8 39 -5 45 2 7 5 1 5 -13 1 -20 3 -22 11 -10 14 21 13 113 -1 104 -6 -3 -8 -18 -5 -33 4 -17 3 -21 -3 -11 -12 22 -23 99 -11 80 9 -15 11 -13 14 13 1 7 12 11 26 10 23 -2 23 -2 5 6 -25 12 -58 14 -52 4z"/>
 <path d="M635 1130 c3 -5 8 -10 11 -10 3 0 2 5 -1 10 -3 6 -8 10 -11 10 -3 0 -2 -4 1 -10z"/>
 <path d="M663 1133 c4 -3 10 -3 14 0 3 4 0 7 -7 7 -7 0 -10 -3 -7 -7z"/>
 <path d="M1252 1120 c0 -14 2 -19 5 -12 2 6 2 18 0 25 -3 6 -5 1 -5 -13z"/>
 <path d="M598 1123 c7 -3 16 -2 19 1 4 3 -2 6 -13 5 -11 0 -14 -3 -6 -6z"/>
 <path d="M1760 630 c0 -7 3 -10 7 -7 3 4 3 10 0 14 -4 3 -7 0 -7 -7z"/>
 <path d="M2160 420 c0 -5 5 -10 11 -10 5 0 7 5 4 10 -3 6 -8 10 -11 10 -2 0 -4 -4 -4 -10z"/>
 </g>
<g id="layer120" fill="#bfbec6" stroke="none">
 <path d="M0 760 l0 -760 1305 0 1305 0 0 760 0 760 -1305 0 -1305 0 0 -760z m1521 590 c20 -6 78 -38 129 -73 51 -34 100 -66 109 -72 71 -43 121 -79 121 -86 0 -5 4 -9 9 -9 14 0 161 -92 161 -102 0 -4 5 -8 11 -8 10 0 79 -48 90 -63 3 -5 8 -7 10 -5 4 3 88 -53 196 -130 51 -36 114 -112 93 -112 -5 0 -10 -9 -10 -21 0 -11 -4 -17 -10 -14 -12 7 -11 14 -14 -100 -4 -147 -23 -177 -132 -204 -66 -17 -512 -91 -541 -90 -16 0 62 16 172 35 110 19 208 39 218 44 10 6 21 9 26 6 4 -3 29 2 57 9 41 12 43 14 14 11 -19 -1 -44 -7 -54 -11 -15 -6 -17 -5 -11 5 5 9 4 11 -3 6 -6 -4 -24 0 -40 8 -16 8 -32 12 -36 9 -3 -4 -6 1 -6 10 0 11 -5 14 -16 10 -9 -3 -20 0 -24 7 -7 11 -14 11 -34 2 -22 -10 -26 -9 -26 3 0 8 5 15 10 15 6 0 10 5 10 11 0 5 -4 8 -9 5 -4 -3 -13 6 -19 19 -7 15 -20 25 -32 25 -12 0 -19 4 -16 9 3 5 0 13 -7 19 -16 14 -118 46 -192 61 -115 24 -134 31 -129 46 3 8 24 16 47 18 23 2 -13 4 -80 5 l-123 2 0 25 c0 23 -4 25 -40 25 -27 0 -48 7 -63 21 -12 11 -31 19 -43 16 -17 -3 -19 1 -16 26 4 28 3 29 -19 23 -13 -3 -89 -20 -169 -36 -80 -16 -163 -34 -185 -40 -69 -17 -73 -9 -5 11 69 20 36 17 -65 -6 -36 -8 -50 -14 -35 -15 17 -2 10 -5 -20 -11 -25 -5 -51 -7 -58 -4 -8 3 -10 0 -6 -7 5 -7 -1 -9 -19 -4 -14 3 -29 1 -32 -4 -4 -6 -11 -8 -16 -4 -5 3 -16 1 -22 -5 -16 -12 -74 -17 -103 -8 -11 4 -56 0 -100 -8 -126 -24 -247 -31 -261 -13 -36 43 -33 194 6 291 26 64 29 66 236 132 83 27 155 52 160 57 6 6 4 7 -5 4 -8 -2 -58 -17 -110 -31 -232 -65 -297 -96 -300 -145 -1 -9 -3 -11 -6 -3 -10 25 27 75 71 94 23 10 45 25 48 33 3 8 22 18 41 22 20 3 36 10 36 15 0 5 9 9 20 9 11 0 55 11 98 24 42 14 113 32 157 41 44 10 85 21 90 25 12 9 94 30 147 37 23 3 35 9 31 16 -3 5 -1 7 5 3 10 -6 191 32 284 60 25 8 63 15 82 16 20 2 36 6 36 10 0 4 12 6 28 4 15 -1 36 1 47 5 29 11 114 10 156 -1z m-1404 -547 c-4 -3 -7 0 -7 7 0 7 3 10 7 7 3 -4 3 -10 0 -14z m1080 -80 c-4 -3 -10 -3 -14 0 -3 4 0 7 7 7 7 0 10 -3 7 -7z m0 -60 c-4 -3 -10 -3 -14 0 -3 4 0 7 7 7 7 0 10 -3 7 -7z m71 0 c-10 -2 -26 -2 -35 0 -10 3 -2 5 17 5 19 0 27 -2 18 -5z m-825 -103 c16 0 26 -4 22 -10 -7 -11 -70 -8 -81 3 -3 3 -3 11 1 17 5 9 10 9 18 1 6 -6 24 -11 40 -11z m351 -3 c-3 -8 -11 -14 -19 -14 -18 0 -20 13 -2 20 21 9 27 7 21 -6z m-357 -64 c-4 -3 -10 -3 -14 0 -3 4 0 7 7 7 7 0 10 -3 7 -7z m410 -140 c-4 -3 -10 -3 -14 0 -3 4 0 7 7 7 7 0 10 -3 7 -7z m1270 1 c-3 -3 -12 -4 -19 -1 -8 3 -5 6 6 6 11 1 17 -2 13 -5z m-1180 -31 c-4 -3 -10 -3 -14 0 -3 4 0 7 7 7 7 0 10 -3 7 -7z m60 -20 c-4 -3 -10 -3 -14 0 -3 4 0 7 7 7 7 0 10 -3 7 -7z m503 -17 c33 -13 30 -14 -76 -21 -80 -5 -127 -3 -170 6 l-59 14 65 6 c112 10 204 8 240 -5z m-413 -13 c-4 -3 -10 -3 -14 0 -3 4 0 7 7 7 7 0 10 -3 7 -7z m50 -20 c-4 -3 -10 -3 -14 0 -3 4 0 7 7 7 7 0 10 -3 7 -7z m561 0 c-10 -2 -28 -2 -40 0 -13 2 -5 4 17 4 22 1 32 -1 23 -4z m-85 -10 c-13 -2 -33 -2 -45 0 -13 2 -3 4 22 4 25 0 35 -2 23 -4z m-406 -10 c-4 -3 -10 -3 -14 0 -3 4 0 7 7 7 7 0 10 -3 7 -7z m321 0 c-10 -2 -28 -2 -40 0 -13 2 -5 4 17 4 22 1 32 -1 23 -4z m-110 -10 c-10 -2 -28 -2 -40 0 -13 2 -5 4 17 4 22 1 32 -1 23 -4z"/>
 <path d="M1312 1293 c-40 -9 -71 -17 -69 -19 2 -3 46 2 98 10 79 12 97 12 115 1 53 -34 72 -210 34 -320 -25 -74 -40 -90 -101 -110 -54 -18 -65 -31 -19 -21 22 4 30 2 30 -9 0 -9 10 -15 25 -15 14 0 25 5 25 11 0 5 -4 7 -10 4 -6 -4 -7 1 -3 11 4 11 8 13 11 6 2 -7 11 -12 19 -12 9 0 13 -6 10 -14 -5 -12 4 -14 46 -11 29 2 46 1 40 -2 -21 -8 -15 -18 29 -47 28 -18 52 -26 70 -24 16 3 24 0 21 -6 -4 -5 1 -7 10 -3 9 3 22 1 29 -6 7 -7 42 -28 78 -46 36 -18 57 -30 48 -27 -10 3 -18 2 -18 -3 0 -4 -12 -6 -26 -3 -19 3 -25 1 -20 -7 4 -6 12 -9 17 -6 5 4 14 3 21 -1 7 -4 25 -9 42 -11 16 -2 35 -8 43 -14 10 -9 13 -8 13 5 0 16 3 16 28 -2 15 -10 35 -22 45 -25 10 -4 16 -11 13 -16 -3 -5 1 -11 8 -14 8 -3 17 -1 20 6 2 7 5 0 5 -14 1 -21 10 -31 39 -44 20 -9 42 -22 47 -29 13 -15 86 -50 105 -51 8 0 14 -8 12 -17 -4 -23 39 -34 81 -21 46 13 71 62 73 145 2 66 -11 96 -18 41 -3 -24 -8 -28 -39 -31 -23 -2 -40 2 -49 12 -7 9 -21 16 -31 16 -11 0 -19 4 -19 9 0 5 -12 14 -27 21 -47 19 -73 34 -73 42 0 5 -6 8 -14 8 -15 0 -79 34 -106 56 -8 6 -46 29 -85 49 -38 20 -72 40 -75 44 -3 4 -21 13 -40 21 -19 7 -51 26 -71 42 -20 15 -44 28 -53 28 -9 0 -16 4 -16 9 0 5 -12 14 -27 20 -48 20 -83 42 -83 51 0 5 -7 7 -15 4 -19 -8 -23 16 -28 146 -2 83 -8 113 -25 146 -31 60 -54 65 -190 37z m168 -443 c0 -5 -5 -10 -11 -10 -5 0 -7 5 -4 10 3 6 8 10 11 10 2 0 4 -4 4 -10z m27 -27 c-4 -3 -7 0 -7 7 0 7 3 10 7 7 3 -4 3 -10 0 -14z m148 -73 c3 -6 -1 -7 -9 -4 -18 7 -21 14 -7 14 6 0 13 -4 16 -10z m522 -287 c-4 -3 -10 -3 -14 0 -3 4 0 7 7 7 7 0 10 -3 7 -7z"/>
 <path d="M1203 1263 c4 -3 10 -3 14 0 3 4 0 7 -7 7 -7 0 -10 -3 -7 -7z"/>
 <path d="M1383 1253 c9 -2 23 -2 30 0 6 3 -1 5 -18 5 -16 0 -22 -2 -12 -5z"/>
 <path d="M1263 1233 c4 -3 10 -3 14 0 3 4 0 7 -7 7 -7 0 -10 -3 -7 -7z"/>
 <path d="M865 1194 c-71 -19 -135 -36 -142 -37 -18 -4 -27 -16 -11 -13 53 7 298 72 298 78 0 11 -1 11 -145 -28z"/>
 <path d="M1130 1213 c-28 -4 -349 -82 -475 -114 -148 -38 -320 -90 -362 -109 -24 -11 -47 -20 -51 -20 -17 0 -49 -46 -60 -86 -16 -54 -17 -171 -3 -208 12 -29 12 -29 79 -22 212 20 787 137 1052 214 90 27 118 48 81 60 -8 3 -11 0 -8 -5 4 -6 -13 -16 -36 -23 -23 -8 -46 -17 -50 -21 -5 -3 -18 -4 -29 -1 -17 4 -19 11 -14 46 4 31 3 36 -5 21 -7 -15 -8 -8 -4 27 2 26 0 50 -5 53 -6 3 -10 -2 -11 -12 0 -10 -5 -3 -10 15 -6 19 -8 39 -5 45 2 7 5 1 5 -13 1 -20 3 -22 11 -10 14 21 13 113 -1 104 -6 -3 -8 -18 -5 -33 4 -17 3 -21 -3 -11 -12 22 -23 99 -11 80 5 -8 10 -13 11 -10 0 3 2 12 4 21 2 12 -6 16 -34 16 -20 0 -47 -2 -61 -4z"/>
 <path d="M1248 1213 c7 -3 16 -2 19 1 4 3 -2 6 -13 5 -11 0 -14 -3 -6 -6z"/>
 <path d="M635 1130 c3 -5 8 -10 11 -10 3 0 2 5 -1 10 -3 6 -8 10 -11 10 -3 0 -2 -4 1 -10z"/>
 <path d="M663 1133 c4 -3 10 -3 14 0 3 4 0 7 -7 7 -7 0 -10 -3 -7 -7z"/>
 <path d="M1252 1120 c0 -14 2 -19 5 -12 2 6 2 18 0 25 -3 6 -5 1 -5 -13z"/>
 <path d="M593 1123 c4 -3 10 -3 14 0 3 4 0 7 -7 7 -7 0 -10 -3 -7 -7z"/>
 <path d="M1290 820 c-18 -12 -2 -12 25 0 13 6 15 9 5 9 -8 0 -22 -4 -30 -9z"/>
 <path d="M1355 810 c3 -5 8 -10 11 -10 3 0 2 5 -1 10 -3 6 -8 10 -11 10 -3 0 -2 -4 1 -10z"/>
 <path d="M1323 803 c4 -3 10 -3 14 0 3 4 0 7 -7 7 -7 0 -10 -3 -7 -7z"/>
 <path d="M1440 790 c0 -7 3 -10 7 -7 3 4 3 10 0 14 -4 3 -7 0 -7 -7z"/>
 <path d="M1040 760 c-20 -6 -21 -8 -5 -8 11 0 29 3 40 8 25 11 -1 11 -35 0z"/>
 <path d="M1420 760 c0 -5 14 -10 30 -10 17 0 30 5 30 10 0 6 -13 10 -30 10 -16 0 -30 -4 -30 -10z"/>
 <path d="M978 743 c6 -2 18 -2 25 0 6 3 1 5 -13 5 -14 0 -19 -2 -12 -5z"/>
 <path d="M1368 733 c7 -3 16 -2 19 1 4 3 -2 6 -13 5 -11 0 -14 -3 -6 -6z"/>
 <path d="M1494 728 c-4 -7 -3 -8 4 -4 12 7 16 16 8 16 -3 0 -8 -5 -12 -12z"/>
 <path d="M1695 700 c3 -5 10 -10 16 -10 5 0 9 5 9 10 0 6 -7 10 -16 10 -8 0 -12 -4 -9 -10z"/>
 <path d="M578 663 c7 -3 16 -2 19 1 4 3 -2 6 -13 5 -11 0 -14 -3 -6 -6z"/>
 <path d="M1760 630 c0 -7 3 -10 7 -7 3 4 3 10 0 14 -4 3 -7 0 -7 -7z"/>
 <path d="M2137 389 c7 -7 15 -10 18 -7 3 3 -2 9 -12 12 -14 6 -15 5 -6 -5z"/>
 <path d="M2188 383 c6 -2 18 -2 25 0 6 3 1 5 -13 5 -14 0 -19 -2 -12 -5z"/>
 </g>
<g id="layer121" fill="#bec3c8" stroke="none">
 <path d="M0 760 l0 -760 1305 0 1305 0 0 760 0 760 -1305 0 -1305 0 0 -760z m1587 562 c23 -12 44 -26 48 -31 3 -6 28 -22 55 -37 28 -15 50 -31 50 -35 0 -4 17 -16 38 -26 37 -17 59 -33 92 -64 10 -9 21 -18 26 -20 33 -14 154 -93 154 -100 0 -5 5 -9 11 -9 11 0 79 -48 91 -65 4 -5 8 -7 8 -3 0 7 88 -51 197 -129 62 -45 109 -103 92 -114 -7 -4 -9 -14 -6 -22 4 -10 0 -17 -10 -19 -13 -2 -16 -20 -18 -93 -2 -107 -23 -168 -63 -184 -15 -6 -56 -17 -92 -25 -94 -22 -489 -86 -519 -85 -14 0 64 16 174 35 110 19 208 38 217 44 10 5 25 7 35 3 29 -10 12 3 -34 26 -34 17 -43 18 -43 7 0 -8 7 -17 15 -19 11 -4 10 -4 -2 -3 -11 1 -19 11 -21 27 -3 22 -7 25 -29 21 -16 -3 -24 -1 -20 5 3 5 0 10 -8 10 -8 0 -15 -5 -15 -10 0 -6 -3 -7 -7 -4 -3 4 -12 2 -20 -4 -19 -16 -17 6 3 25 8 9 11 16 6 16 -5 0 -14 12 -21 26 -8 19 -17 25 -32 21 -15 -4 -19 -2 -15 9 3 9 1 12 -4 9 -6 -3 -10 -2 -10 3 0 5 -11 14 -25 20 -34 16 -207 59 -269 68 -35 5 -50 12 -53 25 -3 11 -15 19 -27 20 -60 2 -116 17 -116 32 0 7 -13 12 -35 11 -43 -1 -54 -9 -18 -12 63 -5 28 -12 -58 -11 -55 1 -86 4 -74 9 11 4 24 5 28 3 5 -3 16 2 27 12 10 9 27 17 39 18 25 2 26 6 4 22 -14 11 -20 9 -36 -11 -14 -19 -27 -24 -60 -23 l-42 1 43 9 c23 4 47 11 52 14 15 10 12 28 -4 22 -19 -8 -42 18 -25 29 7 4 9 3 5 -4 -3 -6 -2 -13 4 -17 6 -4 10 5 10 21 0 23 -3 25 -22 20 -13 -4 -88 -20 -168 -36 -80 -16 -163 -34 -185 -40 -69 -17 -73 -9 -5 11 69 20 36 17 -65 -6 -36 -8 -50 -14 -35 -15 17 -2 10 -5 -20 -11 -25 -5 -51 -7 -58 -4 -8 3 -10 0 -6 -7 5 -7 -1 -9 -20 -4 -16 4 -26 2 -26 -4 0 -6 -8 -10 -17 -8 -10 1 -23 -1 -30 -5 -10 -6 -39 -8 -118 -5 -16 1 -78 -6 -136 -15 -155 -25 -195 -23 -215 9 -31 47 -18 213 22 300 14 30 26 37 119 74 46 19 238 80 250 80 8 0 16 4 20 9 3 6 -7 6 -27 0 -18 -5 -67 -18 -108 -30 -133 -36 -250 -82 -256 -101 -3 -10 -10 -18 -15 -18 -5 0 -9 -8 -9 -17 0 -9 -3 -13 -7 -10 -3 4 2 24 11 46 14 30 27 41 58 52 21 7 44 21 49 30 5 10 25 21 45 25 19 3 32 9 29 12 -3 4 16 12 42 18 26 7 73 19 103 27 30 8 91 23 135 33 44 10 85 21 90 25 12 8 96 29 147 36 23 3 35 9 31 16 -3 6 -1 7 5 3 6 -4 31 -2 54 5 24 6 51 13 60 14 10 2 22 6 26 9 5 3 31 8 58 12 27 3 67 12 90 20 23 8 57 15 77 16 21 2 37 6 37 10 0 4 8 7 18 6 23 0 126 13 130 17 7 7 110 -23 149 -43z m-1470 -524 c-3 -8 -6 -5 -6 6 -1 11 2 17 5 13 3 -3 4 -12 1 -19z m1090 -54 c-3 -3 -12 -4 -19 -1 -8 3 -5 6 6 6 11 1 17 -2 13 -5z m-10 -21 c-4 -3 -10 -3 -14 0 -3 4 0 7 7 7 7 0 10 -3 7 -7z m0 -60 c-4 -3 -10 -3 -14 0 -3 4 0 7 7 7 7 0 10 -3 7 -7z m-282 -73 c-3 -5 -16 -10 -28 -10 -12 0 -29 -5 -37 -10 -11 -8 -7 -9 15 -5 l30 5 -30 -11 c-16 -6 -37 -13 -45 -16 -8 -3 -30 -6 -48 -8 -28 -2 -31 0 -20 12 33 32 180 71 163 43z m-472 -30 c16 0 26 -4 22 -10 -7 -11 -70 -8 -81 3 -3 3 -3 11 1 17 5 9 10 9 18 1 6 -6 24 -11 40 -11z m1321 -9 c4 -5 -3 -7 -14 -4 -23 6 -26 13 -6 13 8 0 17 -4 20 -9z m84 -28 c-10 -2 -26 -2 -35 0 -10 3 -2 5 17 5 19 0 27 -2 18 -5z m55 -27 c4 -10 0 -12 -14 -9 -10 3 -16 9 -13 14 8 13 21 11 27 -5z m-1466 -3 c-4 -3 -10 -3 -14 0 -3 4 0 7 7 7 7 0 10 -3 7 -7z m1520 -100 c-4 -3 -7 0 -7 7 0 7 3 10 7 7 3 -4 3 -10 0 -14z m-1110 -40 c-4 -3 -10 -3 -14 0 -3 4 0 7 7 7 7 0 10 -3 7 -7z m90 -30 c-4 -3 -10 -3 -14 0 -3 4 0 7 7 7 7 0 10 -3 7 -7z m30 -10 c-4 -3 -10 -3 -14 0 -3 4 0 7 7 7 7 0 10 -3 7 -7z m30 -10 c-4 -3 -10 -3 -14 0 -3 4 0 7 7 7 7 0 10 -3 7 -7z m503 -17 c33 -13 30 -14 -76 -21 -80 -5 -127 -3 -170 6 l-59 14 65 6 c112 10 204 8 240 -5z m-453 -3 c-4 -3 -10 -3 -14 0 -3 4 0 7 7 7 7 0 10 -3 7 -7z m40 -10 c-4 -3 -10 -3 -14 0 -3 4 0 7 7 7 7 0 10 -3 7 -7z m50 -20 c-4 -3 -10 -3 -14 0 -3 4 0 7 7 7 7 0 10 -3 7 -7z m561 0 c-10 -2 -28 -2 -40 0 -13 2 -5 4 17 4 22 1 32 -1 23 -4z m-85 -10 c-13 -2 -33 -2 -45 0 -13 2 -3 4 22 4 25 0 35 -2 23 -4z m-406 -10 c-4 -3 -10 -3 -14 0 -3 4 0 7 7 7 7 0 10 -3 7 -7z m321 0 c-10 -2 -28 -2 -40 0 -13 2 -5 4 17 4 22 1 32 -1 23 -4z m-110 -10 c-10 -2 -28 -2 -40 0 -13 2 -5 4 17 4 22 1 32 -1 23 -4z"/>
 <path d="M1312 1293 c-40 -9 -71 -17 -69 -19 2 -3 46 2 98 10 79 12 97 12 115 1 53 -34 72 -210 34 -320 -25 -74 -40 -90 -101 -110 -27 -9 -49 -18 -49 -20 0 -8 85 2 110 12 28 12 42 7 20 -7 -12 -8 -12 -10 -1 -10 7 0 11 -6 8 -14 -5 -12 4 -14 46 -11 29 2 46 1 40 -2 -22 -8 -14 -23 22 -40 19 -9 35 -21 35 -26 0 -5 16 -7 35 -4 25 4 33 2 29 -5 -5 -7 -1 -9 9 -5 9 3 22 1 29 -6 7 -7 36 -23 65 -37 28 -14 49 -29 46 -34 -4 -5 -1 -6 4 -3 10 7 54 -10 103 -39 14 -8 38 -20 53 -26 22 -8 26 -13 15 -20 -9 -7 -7 -8 10 -5 18 4 22 1 22 -18 0 -16 10 -28 38 -41 20 -9 43 -17 50 -17 7 0 11 -6 8 -14 -6 -15 10 -18 19 -3 3 6 14 9 23 9 15 -1 15 -2 0 -6 -21 -5 -24 -23 -4 -23 7 0 19 -7 26 -15 7 -9 23 -13 36 -11 21 4 23 2 14 -14 -7 -13 -6 -20 3 -23 6 -3 -2 -6 -20 -6 -17 -1 -35 -5 -38 -11 -8 -12 -14 -13 75 5 83 17 103 33 120 96 11 41 10 129 -2 129 -4 0 -8 -12 -10 -27 -2 -22 -9 -29 -31 -31 -27 -3 -111 30 -123 49 -3 5 -12 9 -20 9 -9 0 -22 6 -29 13 -36 31 -46 37 -65 37 -11 0 -20 5 -20 10 0 6 -6 10 -14 10 -8 0 -28 11 -44 25 -17 14 -35 25 -41 25 -6 0 -11 5 -11 10 0 6 -8 10 -18 10 -15 0 -89 43 -102 60 -3 3 -21 12 -40 20 -37 15 -93 50 -98 63 -2 4 -12 7 -22 7 -9 0 -23 7 -30 15 -7 8 -21 15 -31 15 -11 0 -19 5 -19 10 0 6 -7 10 -15 10 -8 0 -20 9 -27 19 -6 10 -17 17 -24 14 -18 -6 -23 21 -27 147 -2 78 -8 114 -22 140 -34 65 -59 70 -193 43z m195 -470 c-4 -3 -7 0 -7 7 0 7 3 10 7 7 3 -4 3 -10 0 -14z m110 -50 c-4 -3 -10 -3 -14 0 -3 4 0 7 7 7 7 0 10 -3 7 -7z m38 -23 c3 -6 -1 -7 -9 -4 -18 7 -21 14 -7 14 6 0 13 -4 16 -10z m412 -227 c-4 -3 -10 -3 -14 0 -3 4 0 7 7 7 7 0 10 -3 7 -7z m263 -127 c0 -3 -5 -8 -12 -12 -7 -4 -8 -3 -4 4 7 12 16 16 16 8z"/>
 <path d="M1203 1263 c4 -3 10 -3 14 0 3 4 0 7 -7 7 -7 0 -10 -3 -7 -7z"/>
 <path d="M980 1220 c-13 -8 -13 -10 2 -10 9 0 20 5 23 10 8 13 -5 13 -25 0z"/>
 <path d="M1173 1213 c4 -3 10 -3 14 0 3 4 0 7 -7 7 -7 0 -10 -3 -7 -7z"/>
 <path d="M860 1193 c-25 -8 -58 -17 -75 -20 -16 -2 -34 -9 -40 -14 -12 -12 35 -3 140 27 49 13 68 22 50 22 -16 0 -50 -7 -75 -15z"/>
 <path d="M1000 1180 c-69 -16 -210 -51 -315 -78 -341 -88 -453 -127 -479 -166 -34 -53 -47 -225 -20 -265 15 -21 21 -22 78 -16 186 20 618 105 906 178 182 47 264 75 223 76 -12 1 -32 -3 -45 -8 -49 -20 -63 -24 -75 -22 -6 1 -30 -3 -54 -8 -61 -14 -78 10 -100 144 -10 61 -18 84 -37 102 -25 23 -25 23 -3 23 13 0 19 4 16 10 -4 6 -10 8 -15 5 -5 -3 -11 -1 -15 5 -3 5 3 10 14 10 11 0 23 5 26 10 3 6 15 10 25 10 10 0 22 5 25 10 9 15 -16 11 -155 -20z m-783 -277 c-4 -3 -7 0 -7 7 0 7 3 10 7 7 3 -4 3 -10 0 -14z m23 -71 c0 -15 -2 -15 -10 -2 -13 20 -13 33 0 25 6 -3 10 -14 10 -23z m0 -53 c0 -5 -4 -9 -8 -9 -5 0 -9 7 -9 15 0 8 4 12 9 9 4 -3 8 -9 8 -15z m-30 -29 c0 -5 -4 -10 -10 -10 -5 0 -10 5 -10 10 0 6 5 10 10 10 6 0 10 -4 10 -10z m37 -27 c-4 -3 -7 0 -7 7 0 7 3 10 7 7 3 -4 3 -10 0 -14z m-17 -25 c0 -18 -2 -20 -9 -8 -6 8 -7 18 -5 22 9 14 14 9 14 -14z m67 -4 c-3 -3 -12 -4 -19 -1 -8 3 -5 6 6 6 11 1 17 -2 13 -5z"/>
 <path d="M706 1152 c-3 -5 1 -9 9 -9 8 0 12 4 9 9 -3 4 -7 8 -9 8 -2 0 -6 -4 -9 -8z"/>
 <path d="M635 1130 c3 -5 8 -10 11 -10 3 0 2 5 -1 10 -3 6 -8 10 -11 10 -3 0 -2 -4 1 -10z"/>
 <path d="M593 1123 c4 -3 10 -3 14 0 3 4 0 7 -7 7 -7 0 -10 -3 -7 -7z"/>
 <path d="M1313 823 c4 -3 10 -3 14 0 3 4 0 7 -7 7 -7 0 -10 -3 -7 -7z"/>
 <path d="M1283 813 c4 -3 10 -3 14 0 3 4 0 7 -7 7 -7 0 -10 -3 -7 -7z"/>
 <path d="M1355 810 c3 -5 8 -10 11 -10 3 0 2 5 -1 10 -3 6 -8 10 -11 10 -3 0 -2 -4 1 -10z"/>
 <path d="M1423 813 c4 -3 10 -3 14 0 3 4 0 7 -7 7 -7 0 -10 -3 -7 -7z"/>
 <path d="M1323 803 c4 -3 10 -3 14 0 3 4 0 7 -7 7 -7 0 -10 -3 -7 -7z"/>
 <path d="M1440 790 c0 -7 3 -10 7 -7 3 4 3 10 0 14 -4 3 -7 0 -7 -7z"/>
 <path d="M1040 760 c-21 -7 -21 -8 -5 -9 11 0 27 4 35 9 18 11 5 11 -30 0z"/>
 <path d="M1420 760 c0 -5 14 -10 30 -10 17 0 30 5 30 10 0 6 -13 10 -30 10 -16 0 -30 -4 -30 -10z"/>
 <path d="M978 743 c7 -3 16 -2 19 1 4 3 -2 6 -13 5 -11 0 -14 -3 -6 -6z"/>
 <path d="M1368 733 c7 -3 16 -2 19 1 4 3 -2 6 -13 5 -11 0 -14 -3 -6 -6z"/>
 <path d="M1494 728 c-4 -7 -3 -8 4 -4 12 7 16 16 8 16 -3 0 -8 -5 -12 -12z"/>
 <path d="M1703 703 c4 -3 10 -3 14 0 3 4 0 7 -7 7 -7 0 -10 -3 -7 -7z"/>
 <path d="M1293 673 c4 -3 10 -3 14 0 3 4 0 7 -7 7 -7 0 -10 -3 -7 -7z"/>
 <path d="M583 663 c4 -3 10 -3 14 0 3 4 0 7 -7 7 -7 0 -10 -3 -7 -7z"/>
 <path d="M2143 383 c4 -3 10 -3 14 0 3 4 0 7 -7 7 -7 0 -10 -3 -7 -7z"/>
 <path d="M2188 383 c6 -2 18 -2 25 0 6 3 1 5 -13 5 -14 0 -19 -2 -12 -5z"/>
 </g>
<g id="layer122" fill="#d0d0d2" stroke="none">
 <path d="M0 760 l0 -760 1305 0 1305 0 0 760 0 760 -1305 0 -1305 0 0 -760z m1518 591 c24 -5 62 -22 84 -38 73 -50 153 -102 168 -109 8 -4 39 -25 68 -47 29 -22 88 -63 131 -91 185 -119 391 -260 391 -268 0 -4 6 -8 14 -8 8 0 33 -22 56 -50 31 -36 37 -50 25 -50 -12 0 -15 -6 -10 -19 4 -13 1 -20 -10 -23 -14 -2 -17 -19 -19 -93 -3 -107 -24 -168 -64 -184 -88 -35 -758 -144 -865 -140 -18 1 33 9 113 19 80 10 172 23 205 28 33 6 116 20 184 32 69 12 133 26 143 31 10 5 23 7 28 4 6 -3 10 -4 10 -1 0 7 -61 36 -74 35 -6 0 0 -5 14 -11 21 -9 22 -12 7 -15 -11 -3 -28 6 -42 21 -13 14 -28 26 -32 27 -4 0 -18 2 -31 3 -12 2 -27 -3 -33 -11 -15 -17 -29 -17 -29 2 0 8 6 14 12 12 17 -3 22 37 8 63 -8 14 -17 19 -30 15 -10 -3 -31 -3 -46 1 -25 6 -26 8 -9 20 16 12 14 14 -16 27 -54 22 -245 60 -347 69 -8 1 -17 11 -22 23 -10 26 -57 34 -230 37 -63 1 -97 3 -75 5 49 5 72 23 30 23 -29 1 -28 2 10 15 22 8 41 15 43 15 2 0 -4 7 -12 15 -11 11 -27 14 -53 11 -31 -5 -28 -3 15 10 28 9 52 21 52 26 0 6 -6 8 -12 5 -7 -2 -62 -14 -123 -26 -60 -13 -149 -31 -197 -42 -50 -11 -99 -17 -114 -13 -17 4 -25 3 -21 -3 7 -12 -79 -27 -96 -16 -6 4 -7 1 -2 -7 6 -10 2 -11 -19 -6 -16 4 -26 2 -26 -4 0 -6 -8 -10 -17 -8 -10 1 -23 -1 -30 -5 -10 -6 -37 -7 -123 -5 -14 0 -73 -7 -131 -16 -157 -24 -195 -22 -216 10 -37 57 -8 276 43 327 14 15 82 42 188 77 91 30 163 56 161 58 -4 5 -209 -55 -286 -84 -62 -23 -109 -60 -109 -86 0 -6 -3 -8 -7 -5 -3 4 2 24 11 46 14 30 27 41 57 51 21 7 41 21 44 32 4 12 20 20 45 24 22 4 37 10 34 15 -3 5 4 9 15 9 11 0 55 11 98 24 43 14 106 30 140 37 38 7 60 16 56 22 -3 5 -2 8 3 5 5 -3 43 3 84 14 41 11 86 22 100 25 14 2 32 7 40 10 8 3 30 7 49 9 19 2 37 8 41 14 4 6 11 10 16 9 13 -4 170 29 294 61 19 5 64 12 100 16 36 3 67 8 69 10 3 2 12 2 20 -1 9 -2 35 -9 59 -14z m-1381 -448 c-4 -3 -7 0 -7 7 0 7 3 10 7 7 3 -4 3 -10 0 -14z m-20 -115 c-3 -7 -5 -2 -5 12 0 14 2 19 5 13 2 -7 2 -19 0 -25z m1080 -65 c-4 -3 -10 -3 -14 0 -3 4 0 7 7 7 7 0 10 -3 7 -7z m-277 -133 c0 -5 -12 -10 -27 -10 -16 0 -35 -5 -43 -10 -11 -8 -7 -9 15 -5 l30 5 -30 -11 c-16 -6 -37 -13 -45 -16 -8 -3 -30 -6 -48 -8 -28 -2 -31 0 -20 12 34 33 168 68 168 43z m-477 -30 c16 0 26 -4 22 -10 -7 -11 -70 -8 -81 3 -3 3 -3 11 1 17 5 9 10 9 18 1 6 -6 24 -11 40 -11z m1254 3 c-4 -3 -10 -3 -14 0 -3 4 0 7 7 7 7 0 10 -3 7 -7z m73 -13 c18 -12 2 -12 -25 0 -13 6 -15 9 -5 9 8 0 22 -4 30 -9z m-1483 -7 c-4 -3 -10 -3 -14 0 -3 4 0 7 7 7 7 0 10 -3 7 -7z m1561 -20 c-10 -2 -28 -2 -40 0 -13 2 -5 4 17 4 22 1 32 -1 23 -4z m-1411 -30 c-4 -3 -10 -3 -14 0 -3 4 0 7 7 7 7 0 10 -3 7 -7z m1520 -20 c-4 -3 -10 -3 -14 0 -3 4 0 7 7 7 7 0 10 -3 7 -7z m3 -33 c0 -5 -2 -10 -4 -10 -3 0 -8 5 -11 10 -3 6 -1 10 4 10 6 0 11 -4 11 -10z m-1263 -37 c-4 -3 -10 -3 -14 0 -3 4 0 7 7 7 7 0 10 -3 7 -7z m60 -20 c-4 -3 -10 -3 -14 0 -3 4 0 7 7 7 7 0 10 -3 7 -7z m58 -21 c-3 -3 -11 0 -18 7 -9 10 -8 11 6 5 10 -3 15 -9 12 -12z m32 -9 c-4 -3 -10 -3 -14 0 -3 4 0 7 7 7 7 0 10 -3 7 -7z m30 -10 c-4 -3 -10 -3 -14 0 -3 4 0 7 7 7 7 0 10 -3 7 -7z m60 -20 c-4 -3 -10 -3 -14 0 -3 4 0 7 7 7 7 0 10 -3 7 -7z m30 -10 c-4 -3 -10 -3 -14 0 -3 4 0 7 7 7 7 0 10 -3 7 -7z m30 -10 c-4 -3 -10 -3 -14 0 -3 4 0 7 7 7 7 0 10 -3 7 -7z m503 -17 l45 -13 -116 -8 c-85 -5 -133 -3 -175 6 l-59 14 65 6 c117 10 194 9 240 -5z m-443 -2 c-3 -3 -12 -4 -19 -1 -8 3 -5 6 6 6 11 1 17 -2 13 -5z m30 -11 c-4 -3 -10 -3 -14 0 -3 4 0 7 7 7 7 0 10 -3 7 -7z m48 -21 c-3 -3 -11 0 -18 7 -9 10 -8 11 6 5 10 -3 15 -9 12 -12z m42 -9 c-4 -3 -10 -3 -14 0 -3 4 0 7 7 7 7 0 10 -3 7 -7z m30 -10 c-4 -3 -10 -3 -14 0 -3 4 0 7 7 7 7 0 10 -3 7 -7z m216 -10 c-13 -2 -35 -2 -50 0 -16 2 -5 4 22 4 28 0 40 -2 28 -4z"/>
 <path d="M1312 1293 c-102 -22 -83 -27 29 -9 81 13 97 13 115 1 53 -35 72 -210 34 -320 -25 -74 -40 -90 -101 -110 -27 -9 -49 -18 -49 -20 0 -12 102 5 133 23 5 2 8 -2 6 -9 -4 -35 1 -44 16 -25 15 19 15 19 15 -3 0 -20 4 -22 30 -16 22 5 30 3 30 -7 0 -7 16 -26 35 -41 19 -15 35 -24 35 -20 0 5 -9 14 -21 21 -12 7 -19 16 -16 19 3 3 19 -4 35 -16 17 -12 35 -21 42 -21 6 0 8 -5 5 -11 -4 -6 -1 -9 6 -8 13 3 268 -118 279 -132 3 -4 15 -9 28 -13 13 -4 19 -12 16 -18 -5 -7 -1 -9 9 -5 13 5 17 1 17 -16 0 -15 3 -18 8 -10 6 10 12 10 28 -2 16 -13 16 -14 2 -9 -10 3 -18 1 -18 -4 0 -6 26 -19 58 -28 86 -25 117 -37 103 -42 -6 -2 -18 2 -27 8 -8 7 -17 10 -21 6 -12 -12 32 -35 67 -36 19 0 42 -5 50 -10 11 -8 7 -9 -14 -4 -21 5 -27 4 -22 -5 4 -6 1 -11 -6 -11 -9 0 -9 -3 2 -10 8 -5 26 -9 40 -9 l25 1 -25 7 c-24 7 -24 8 7 12 18 3 29 1 26 -4 -3 -5 3 -7 13 -5 42 8 81 142 54 184 -8 14 -10 15 -6 2 8 -26 -27 -50 -60 -42 -16 4 -36 12 -44 19 -8 6 -33 20 -55 30 -22 9 -54 28 -72 41 -17 13 -36 24 -42 24 -12 0 -76 36 -117 67 -17 13 -36 23 -41 23 -6 0 -34 15 -62 34 -28 19 -61 38 -73 42 -12 3 -39 19 -60 34 -21 15 -70 44 -110 64 -119 60 -112 49 -119 189 -6 123 -14 152 -52 195 -24 26 -57 27 -165 5z m223 -473 c3 -5 1 -10 -4 -10 -6 0 -11 5 -11 10 0 6 2 10 4 10 3 0 8 -4 11 -10z m592 -327 c-4 -3 -10 -3 -14 0 -3 4 0 7 7 7 7 0 10 -3 7 -7z"/>
 <path d="M980 1220 c-13 -8 -13 -10 2 -10 9 0 20 5 23 10 8 13 -5 13 -25 0z"/>
 <path d="M1173 1213 c4 -3 10 -3 14 0 3 4 0 7 -7 7 -7 0 -10 -3 -7 -7z"/>
 <path d="M853 1191 c-29 -10 -56 -15 -59 -12 -4 3 -4 1 -1 -6 5 -8 26 -6 80 8 95 27 97 27 62 28 -16 0 -54 -8 -82 -18z"/>
 <path d="M1060 1193 c-329 -75 -702 -176 -792 -215 -57 -24 -71 -45 -86 -122 -17 -84 -15 -157 4 -185 15 -21 21 -22 78 -16 199 22 610 103 911 180 177 45 259 73 218 74 -12 1 -32 -3 -45 -8 -46 -18 -64 -23 -100 -26 -20 -2 -46 -6 -57 -10 -13 -4 -21 -2 -21 5 0 7 -8 9 -21 5 -18 -6 -20 -5 -10 14 8 14 8 21 1 21 -5 0 -9 3 -8 8 3 10 -10 88 -24 146 -10 39 -18 51 -43 62 l-30 13 30 2 c17 1 23 3 13 6 -22 5 -24 23 -3 23 8 0 15 5 15 10 0 6 11 10 24 10 14 0 28 5 31 10 8 13 -5 12 -85 -7z m-843 -290 c-4 -3 -7 0 -7 7 0 7 3 10 7 7 3 -4 3 -10 0 -14z m23 -94 c0 -21 -4 -39 -8 -39 -5 0 -8 20 -8 44 1 54 16 50 16 -5z m-33 -11 c-3 -7 -5 -2 -5 12 0 14 2 19 5 13 2 -7 2 -19 0 -25z m3 -50 c0 -16 -3 -19 -11 -11 -6 6 -8 16 -5 22 11 17 16 13 16 -11z m30 -43 c-15 -29 -33 -34 -28 -7 2 9 10 16 16 15 7 -2 12 5 12 14 0 9 3 13 7 10 3 -4 0 -18 -7 -32z m57 -11 c-3 -3 -12 -4 -19 -1 -8 3 -5 6 6 6 11 1 17 -2 13 -5z"/>
 <path d="M745 1160 c-8 -13 5 -13 25 0 13 8 13 10 -2 10 -9 0 -20 -4 -23 -10z"/>
 <path d="M715 1150 c3 -5 8 -10 11 -10 3 0 2 5 -1 10 -3 6 -8 10 -11 10 -3 0 -2 -4 1 -10z"/>
 <path d="M1313 823 c4 -3 10 -3 14 0 3 4 0 7 -7 7 -7 0 -10 -3 -7 -7z"/>
 <path d="M1283 813 c4 -3 10 -3 14 0 3 4 0 7 -7 7 -7 0 -10 -3 -7 -7z"/>
 <path d="M1355 810 c3 -5 8 -10 11 -10 3 0 2 5 -1 10 -3 6 -8 10 -11 10 -3 0 -2 -4 1 -10z"/>
 <path d="M1323 803 c4 -3 10 -3 14 0 3 4 0 7 -7 7 -7 0 -10 -3 -7 -7z"/>
 <path d="M1063 763 c4 -3 10 -3 14 0 3 4 0 7 -7 7 -7 0 -10 -3 -7 -7z"/>
 <path d="M1420 760 c0 -5 14 -10 30 -10 17 0 30 5 30 10 0 6 -13 10 -30 10 -16 0 -30 -4 -30 -10z"/>
 <path d="M1033 753 c4 -3 10 -3 14 0 3 4 0 7 -7 7 -7 0 -10 -3 -7 -7z"/>
 <path d="M978 743 c7 -3 16 -2 19 1 4 3 -2 6 -13 5 -11 0 -14 -3 -6 -6z"/>
 <path d="M905 730 c-25 -11 1 -11 35 0 20 6 21 8 5 8 -11 0 -29 -3 -40 -8z"/>
 <path d="M1373 733 c4 -3 10 -3 14 0 3 4 0 7 -7 7 -7 0 -10 -3 -7 -7z"/>
 <path d="M1494 728 c-4 -7 -3 -8 4 -4 12 7 16 16 8 16 -3 0 -8 -5 -12 -12z"/>
 <path d="M863 713 c4 -3 10 -3 14 0 3 4 0 7 -7 7 -7 0 -10 -3 -7 -7z"/>
 <path d="M1308 713 c7 -3 16 -2 19 1 4 3 -2 6 -13 5 -11 0 -14 -3 -6 -6z"/>
 <path d="M783 703 c4 -3 10 -3 14 0 3 4 0 7 -7 7 -7 0 -10 -3 -7 -7z"/>
 <path d="M583 663 c4 -3 10 -3 14 0 3 4 0 7 -7 7 -7 0 -10 -3 -7 -7z"/>
 <path d="M1910 500 c-9 -6 -10 -10 -3 -10 6 0 15 5 18 10 8 12 4 12 -15 0z"/>
 <path d="M2200 360 c-13 -8 -12 -10 3 -10 9 0 17 5 17 10 0 12 -1 12 -20 0z"/>
 </g>
<g id="layer123" fill="#e0e0de" stroke="none">
 <path d="M0 760 l0 -760 1305 0 1305 0 0 760 0 760 -1305 0 -1305 0 0 -760z m1513 605 c32 -8 84 -32 115 -53 31 -21 109 -73 172 -115 63 -42 126 -85 140 -94 14 -10 101 -68 195 -131 93 -62 172 -117 173 -123 2 -5 10 -9 17 -9 7 0 27 -13 44 -29 17 -16 31 -26 31 -23 0 3 18 -11 39 -32 22 -22 37 -45 34 -52 -3 -8 0 -14 7 -14 15 0 3 -40 -17 -60 -14 -13 -15 -13 -9 5 6 20 6 20 -9 0 -11 -14 -18 -16 -23 -8 -4 6 -7 -30 -7 -80 0 -75 -4 -100 -22 -133 -22 -40 -25 -42 -110 -63 -218 -52 -608 -110 -892 -131 l-134 -10 -289 97 c-159 54 -286 99 -281 100 5 2 103 -29 219 -68 115 -39 245 -82 289 -95 l79 -24 161 15 c238 23 395 47 395 61 0 7 4 16 10 19 6 3 7 -1 4 -9 -7 -17 12 -19 56 -7 23 6 20 8 -22 19 -57 15 -71 15 -63 2 3 -6 0 -10 -9 -10 -8 0 -16 -4 -18 -9 -1 -5 -9 -3 -16 5 -11 12 -10 14 5 15 10 1 2 5 -17 9 l-35 7 32 2 c17 0 44 8 60 16 15 8 49 22 76 31 26 9 47 21 47 27 0 6 -5 6 -13 -1 -7 -6 -39 -12 -72 -15 -33 -2 -50 -3 -37 0 30 6 28 21 -5 29 -95 20 -129 29 -138 35 -8 5 -90 18 -132 21 -5 0 -17 7 -28 14 -11 8 -29 14 -42 14 -12 0 -24 4 -27 9 -4 5 -24 12 -46 16 -22 4 -40 11 -40 16 0 5 -15 9 -32 9 -25 0 -29 3 -18 10 13 8 12 10 -5 11 -11 1 -29 0 -40 -1 -11 -1 -16 2 -12 6 5 5 49 11 99 14 96 5 124 21 73 40 -30 11 -195 13 -298 3 -58 -5 -70 -10 -79 -28 -7 -16 -25 -26 -66 -35 -70 -15 -183 -50 -197 -60 -12 -10 -65 -1 -65 10 0 14 62 47 120 65 30 9 66 21 80 26 23 8 22 9 -7 6 -24 -3 -33 1 -33 11 0 10 10 13 41 10 35 -3 38 -2 23 9 -15 11 -15 13 -2 13 8 0 32 14 53 30 21 17 35 30 32 30 -7 0 -50 -8 -312 -59 -169 -33 -221 -39 -277 -30 -7 1 -48 -4 -91 -10 -91 -13 -167 -14 -184 -3 -40 26 -34 224 10 312 21 44 25 46 130 84 59 22 105 41 103 44 -6 5 -159 -45 -198 -65 -54 -26 -92 -142 -86 -257 2 -41 0 -72 -4 -70 -12 8 -9 146 3 206 19 86 44 135 73 142 14 3 26 11 26 17 0 14 26 39 40 39 6 0 9 4 6 9 -5 8 49 26 68 22 5 -1 23 5 40 13 17 8 60 22 96 32 36 10 74 25 84 33 12 10 16 11 12 3 -6 -10 0 -12 31 -6 21 3 43 10 48 14 6 4 51 18 100 30 50 13 94 27 99 31 6 5 25 9 44 9 18 0 54 6 80 14 79 23 235 56 265 56 18 0 26 4 21 11 -4 7 -1 10 7 7 7 -2 36 1 63 8 70 17 122 17 189 -1z m-556 -672 c-4 -3 -10 -3 -14 0 -3 4 0 7 7 7 7 0 10 -3 7 -7z m-809 -67 c7 -19 22 -38 33 -41 27 -9 19 -16 -8 -9 -12 3 -27 20 -34 38 -7 17 -14 34 -17 39 -2 4 0 7 5 7 5 0 15 -16 21 -34z m262 -56 c0 -5 14 -10 32 -10 23 0 29 -3 21 -11 -17 -17 -77 -7 -81 14 -2 10 3 17 12 17 9 0 16 -4 16 -10z m-131 -17 c28 -9 51 -19 51 -24 0 -4 -21 1 -47 11 -27 9 -55 20 -63 23 -36 13 13 5 59 -10z m234 -77 c81 -28 147 -54 147 -59 0 -5 -8 -6 -17 -2 -10 4 -80 29 -157 56 -76 26 -141 51 -145 55 -9 9 9 4 172 -50z m1364 -173 c-4 -3 -10 -3 -14 0 -3 4 0 7 7 7 7 0 10 -3 7 -7z m-372 -17 c39 -12 37 -13 -76 -20 -85 -6 -131 -5 -175 5 l-59 14 60 6 c103 10 208 8 250 -5z"/>
 <path d="M1352 1298 c-64 -14 -46 -19 27 -7 59 9 66 8 86 -11 30 -28 45 -90 45 -183 0 -134 -46 -230 -116 -243 -19 -3 -36 -9 -39 -13 -5 -9 86 2 102 12 13 8 82 -24 213 -98 41 -23 127 -68 190 -100 63 -32 122 -64 130 -70 8 -7 51 -32 95 -55 44 -24 121 -65 170 -91 50 -27 93 -49 97 -49 13 0 40 61 34 76 -3 8 -1 14 4 14 6 0 10 4 10 9 0 5 -24 9 -52 8 -29 0 -64 6 -78 13 -14 8 -29 14 -33 15 -5 0 -14 8 -22 18 -14 20 -130 68 -140 59 -3 -4 -3 1 0 9 6 15 -9 26 -65 49 -31 12 -56 28 -93 58 -16 12 -37 22 -48 22 -11 0 -22 7 -25 15 -7 16 -96 65 -120 65 -7 0 -19 9 -26 19 -6 10 -17 17 -23 15 -6 -3 -21 5 -33 17 -13 11 -29 22 -35 23 -29 6 -67 26 -67 35 0 5 -7 16 -15 24 -11 12 -12 22 -3 53 14 54 5 192 -17 235 -37 72 -56 79 -153 57z m165 -365 c-4 -3 -7 0 -7 7 0 7 3 10 7 7 3 -4 3 -10 0 -14z m670 -380 c-4 -3 -10 -3 -14 0 -3 4 0 7 7 7 7 0 10 -3 7 -7z"/>
 <path d="M823 1173 c4 -3 10 -3 14 0 3 4 0 7 -7 7 -7 0 -10 -3 -7 -7z"/>
 <path d="M960 1165 c-25 -8 -60 -17 -77 -20 -161 -25 -578 -148 -588 -172 -2 -8 1 -13 8 -12 32 4 45 -3 52 -28 3 -15 11 -31 17 -34 7 -5 7 -12 0 -25 -6 -12 -7 -27 0 -43 6 -17 6 -27 -1 -29 -17 -6 -13 -27 9 -47 11 -10 20 -30 20 -44 0 -21 -2 -23 -10 -11 -7 11 -12 12 -17 4 -5 -6 -41 -17 -82 -24 -69 -11 -76 -11 -88 6 -7 10 -14 45 -14 78 l-2 61 -7 -60 c-7 -61 2 -100 26 -109 11 -4 234 26 395 53 170 29 621 135 649 153 16 10 3 8 -49 -7 -14 -4 -43 -9 -65 -11 -23 -1 -51 -6 -63 -9 -15 -5 -23 -3 -23 4 0 6 -11 16 -24 21 -19 7 -24 16 -24 38 1 16 -3 35 -7 42 -4 7 -2 16 5 20 9 6 10 16 1 41 -5 19 -13 45 -15 59 -3 14 -15 36 -28 50 -17 18 -18 22 -5 17 9 -3 17 -2 17 3 0 6 -6 10 -12 10 -7 0 5 9 27 19 48 23 37 25 -25 6z m73 -332 c-7 -2 -19 -2 -25 0 -7 3 -2 5 12 5 14 0 19 -2 13 -5z"/>
 <path d="M433 1073 c4 -3 10 -3 14 0 3 4 0 7 -7 7 -7 0 -10 -3 -7 -7z"/>
 <path d="M253 963 c4 -3 10 -3 14 0 3 4 0 7 -7 7 -7 0 -10 -3 -7 -7z"/>
 <path d="M1358 893 c7 -3 16 -2 19 1 4 3 -2 6 -13 5 -11 0 -14 -3 -6 -6z"/>
 <path d="M1420 760 c0 -12 8 -12 35 0 18 8 17 9 -7 9 -16 1 -28 -3 -28 -9z"/>
 <path d="M1068 733 c7 -3 16 -2 19 1 4 3 -2 6 -13 5 -11 0 -14 -3 -6 -6z"/>
 <path d="M478 643 c7 -3 16 -2 19 1 4 3 -2 6 -13 5 -11 0 -14 -3 -6 -6z"/>
 <path d="M1020 620 c0 -5 5 -10 10 -10 6 0 10 5 10 10 0 6 -4 10 -10 10 -5 0 -10 -4 -10 -10z"/>
 <path d="M1348 573 c7 -3 16 -2 19 1 4 3 -2 6 -13 5 -11 0 -14 -3 -6 -6z"/>
 </g>
<g id="layer124" fill="#dedee5" stroke="none">
 <path d="M0 760 l0 -760 1305 0 1305 0 0 760 0 760 -1305 0 -1305 0 0 -760z m1567 598 c26 -12 68 -36 92 -53 23 -16 50 -34 59 -40 10 -5 33 -22 53 -37 20 -16 44 -28 54 -28 9 0 14 -4 11 -8 -3 -4 15 -19 40 -32 24 -14 44 -28 44 -32 0 -5 5 -8 12 -8 6 0 35 -18 64 -40 29 -22 58 -40 64 -40 5 0 10 -4 10 -10 0 -5 5 -10 10 -10 11 0 60 -33 94 -62 11 -10 26 -18 33 -18 7 0 13 -5 13 -10 0 -6 8 -14 18 -17 23 -9 166 -107 202 -140 16 -14 41 -43 56 -64 25 -37 26 -40 11 -63 -9 -14 -32 -30 -52 -37 -34 -13 -35 -15 -35 -63 0 -27 -7 -76 -16 -107 -19 -67 -23 -69 -159 -98 -233 -51 -585 -102 -841 -122 l-149 -11 -240 80 c-674 228 -861 294 -873 309 -35 48 -44 215 -15 317 28 102 91 185 141 186 12 0 22 5 22 11 0 6 7 9 15 5 8 -3 15 -2 15 2 0 5 37 19 83 31 45 13 94 27 109 33 15 6 35 8 43 4 9 -3 13 -2 10 4 -3 6 2 10 12 10 10 0 52 11 93 24 41 13 127 36 190 50 63 15 138 33 165 41 28 7 84 19 125 25 41 7 82 15 90 18 92 36 250 36 327 0z"/>
 <path d="M1370 1300 c-34 -7 -34 -7 -5 -8 17 0 44 4 60 8 27 7 27 8 5 8 -14 -1 -41 -4 -60 -8z"/>
 <path d="M1482 1259 c35 -66 39 -217 8 -302 -26 -71 -36 -83 -87 -102 -23 -8 -30 -14 -18 -14 11 0 36 5 55 12 32 12 40 10 95 -19 167 -90 215 -114 215 -109 0 3 10 -3 22 -15 12 -11 27 -20 34 -20 6 0 17 -7 24 -15 7 -8 20 -15 30 -15 10 0 23 -7 30 -15 7 -8 26 -15 42 -15 19 0 27 -4 22 -11 -5 -8 1 -10 18 -6 20 5 25 3 24 -9 0 -9 15 -24 34 -35 19 -10 40 -22 45 -26 6 -5 23 -14 38 -21 16 -7 75 -39 132 -72 57 -33 107 -60 110 -60 3 0 13 16 21 36 11 27 12 40 4 48 -8 8 -9 6 -4 -8 6 -16 4 -18 -11 -13 -9 4 -24 2 -31 -4 -11 -9 -14 -7 -14 7 0 15 -2 16 -9 5 -7 -11 -13 -10 -34 4 -15 9 -32 13 -38 9 -8 -4 -9 -3 -5 4 4 7 -8 18 -33 28 -22 9 -39 21 -38 27 1 7 -4 11 -12 9 -7 -2 -23 6 -35 16 -24 22 -115 72 -166 92 -19 8 -44 23 -55 33 -11 10 -29 23 -40 28 -22 11 -40 21 -96 57 -20 12 -46 22 -58 22 -12 0 -20 4 -17 9 3 4 -15 19 -39 31 -25 13 -45 27 -45 32 0 4 -5 8 -11 8 -6 0 -26 7 -45 16 l-33 16 6 61 c18 168 1 291 -43 328 -10 8 -7 -3 8 -32z m535 -666 c-4 -3 -10 -3 -14 0 -3 4 0 7 7 7 7 0 10 -3 7 -7z m340 -170 c-4 -3 -7 0 -7 7 0 7 3 10 7 7 3 -4 3 -10 0 -14z"/>
 <path d="M990 1171 c-8 -5 -31 -11 -50 -15 -63 -11 -81 -15 -174 -37 -108 -26 -262 -68 -366 -101 -50 -16 -76 -29 -78 -41 -2 -10 3 -17 11 -17 8 0 18 -12 22 -27 3 -15 11 -31 17 -34 7 -5 7 -12 0 -25 -6 -12 -7 -27 0 -43 6 -17 6 -27 -1 -29 -17 -6 -13 -27 9 -47 11 -10 20 -28 20 -41 0 -13 4 -25 9 -28 25 -16 796 145 820 170 3 4 -7 3 -24 -1 -16 -4 -48 -9 -70 -11 -22 -1 -50 -6 -62 -10 -15 -4 -23 -2 -23 5 0 6 -11 16 -24 21 -19 7 -24 16 -24 38 1 16 -3 35 -7 42 -4 7 -2 16 5 20 9 6 10 16 1 41 -5 19 -13 45 -15 59 -3 14 -15 36 -28 50 -17 18 -18 22 -5 17 9 -3 17 -2 17 3 0 6 -6 10 -12 10 -7 0 5 9 27 19 22 11 36 20 30 20 -5 0 -17 -3 -25 -8z m-599 -298 c-12 -20 -14 -14 -5 12 4 9 9 14 11 11 3 -2 0 -13 -6 -23z m26 -5 c-3 -7 -5 -2 -5 12 0 14 2 19 5 13 2 -7 2 -19 0 -25z m570 10 c2 -17 0 -19 -7 -8 -5 8 -6 18 -4 22 8 12 10 10 11 -14z m46 -45 c-7 -2 -19 -2 -25 0 -7 3 -2 5 12 5 14 0 19 -2 13 -5z"/>
 <path d="M298 1038 c-32 -11 -58 -24 -58 -28 0 -7 129 36 139 46 9 9 -27 1 -81 -18z"/>
 <path d="M190 1030 c-8 -5 -10 -10 -5 -10 6 0 17 5 25 10 8 5 11 10 5 10 -5 0 -17 -5 -25 -10z"/>
 <path d="M200 1000 c-8 -5 -10 -10 -5 -10 6 0 17 5 25 10 8 5 11 10 5 10 -5 0 -17 -5 -25 -10z"/>
 <path d="M166 964 c-9 -24 -2 -26 12 -4 7 11 8 20 3 20 -5 0 -12 -7 -15 -16z"/>
 <path d="M146 915 c-3 -9 -6 -24 -5 -33 0 -9 5 -4 10 12 9 32 6 48 -5 21z"/>
 <path d="M1363 893 c4 -3 10 -3 14 0 3 4 0 7 -7 7 -7 0 -10 -3 -7 -7z"/>
 <path d="M180 700 c0 -7 3 -10 7 -7 3 4 3 10 0 14 -4 3 -7 0 -7 -7z"/>
 <path d="M370 702 c0 -12 -126 -35 -155 -28 -14 4 -25 2 -25 -3 0 -15 29 -17 100 -8 103 14 110 16 104 32 -6 16 -24 21 -24 7z"/>
 <path d="M863 693 c4 -3 10 -3 14 0 3 4 0 7 -7 7 -7 0 -10 -3 -7 -7z"/>
 <path d="M743 663 c4 -3 10 -3 14 0 3 4 0 7 -7 7 -7 0 -10 -3 -7 -7z"/>
 <path d="M610 649 c-19 -5 -78 -13 -130 -19 -52 -6 -106 -13 -118 -16 -15 -3 -21 -1 -17 6 6 10 -91 7 -152 -6 -12 -2 -23 1 -25 8 -3 8 -6 9 -11 1 -9 -14 38 -45 69 -47 13 0 24 -4 24 -7 0 -6 146 -53 165 -54 6 0 12 -3 15 -6 3 -4 53 -22 111 -42 58 -19 150 -50 205 -70 146 -51 243 -84 394 -132 l135 -43 145 14 c80 8 155 15 167 16 12 1 19 6 16 11 -3 5 13 6 38 3 36 -6 41 -5 25 5 -12 8 -37 9 -75 4 -99 -13 -354 -11 -376 2 -18 11 -15 12 23 13 24 0 41 3 39 8 -8 12 185 6 218 -7 21 -9 46 -9 90 -2 58 9 58 9 13 8 -103 -2 -61 24 67 42 44 6 94 15 110 21 25 8 20 9 -32 7 -59 -3 -79 4 -50 17 6 3 2 3 -10 0 -13 -3 -23 -2 -23 3 0 5 -29 14 -65 21 -36 7 -82 21 -103 32 -20 11 -47 20 -60 20 -13 0 -32 5 -42 10 -10 6 -30 11 -44 12 -15 1 -26 6 -26 10 0 4 -27 8 -60 8 -33 0 -60 4 -60 9 0 4 -8 8 -17 8 -62 0 -64 2 -61 36 l3 32 82 0 c44 0 79 3 77 7 -3 4 32 8 77 10 55 2 84 7 87 15 8 27 -51 35 -203 30 -166 -6 -192 -11 -200 -37 -4 -11 -24 -21 -63 -29 -84 -19 -154 -42 -182 -61 -31 -21 -100 -25 -100 -6 0 8 16 26 35 41 29 21 34 30 24 41 -9 11 -7 14 15 14 38 0 32 13 -11 27 -29 9 -40 9 -45 0 -7 -10 -11 -4 -10 14 1 7 -57 6 -98 -2z m-353 -45 c-3 -3 -12 -4 -19 -1 -8 3 -5 6 6 6 11 1 17 -2 13 -5z m-40 -11 c-4 -3 -10 -3 -14 0 -3 4 0 7 7 7 7 0 10 -3 7 -7z m203 -24 c0 -7 11 -8 30 -4 24 5 29 4 24 -8 -5 -14 -60 -27 -83 -19 -20 7 -13 42 9 42 11 0 20 -5 20 -11z m1108 -266 c2 -7 -1 -13 -8 -13 -6 0 -9 4 -5 9 3 5 -3 12 -12 15 -15 4 -15 5 1 3 11 -1 21 -8 24 -14z"/>
 <path d="M1020 620 c0 -5 5 -10 10 -10 6 0 10 5 10 10 0 6 -4 10 -10 10 -5 0 -10 -4 -10 -10z"/>
 <path d="M1843 383 c4 -3 10 -3 14 0 3 4 0 7 -7 7 -7 0 -10 -3 -7 -7z"/>
 <path d="M1583 313 c4 -3 10 -3 14 0 3 4 0 7 -7 7 -7 0 -10 -3 -7 -7z"/>
 <path d="M1683 283 c4 -3 10 -3 14 0 3 4 0 7 -7 7 -7 0 -10 -3 -7 -7z"/>
 <path d="M1728 283 c7 -3 16 -2 19 1 4 3 -2 6 -13 5 -11 0 -14 -3 -6 -6z"/>
 <path d="M1763 283 c4 -3 10 -3 14 0 3 4 0 7 -7 7 -7 0 -10 -3 -7 -7z"/>
 </g>
<g id="layer125" fill="#dfe3e7" stroke="none">
 <path d="M0 760 l0 -760 1305 0 1305 0 0 760 0 760 -1305 0 -1305 0 0 -760z m1567 598 c26 -12 68 -36 92 -53 23 -16 50 -34 59 -40 10 -5 33 -22 53 -37 20 -16 44 -28 54 -28 9 0 14 -4 11 -8 -3 -4 15 -19 40 -32 24 -14 44 -28 44 -32 0 -5 5 -8 12 -8 6 0 35 -18 64 -40 29 -22 58 -40 64 -40 5 0 10 -4 10 -10 0 -5 5 -10 10 -10 11 0 60 -33 94 -62 11 -10 26 -18 33 -18 7 0 13 -5 13 -10 0 -6 8 -14 18 -17 23 -9 166 -107 202 -140 16 -14 41 -43 56 -64 25 -37 26 -40 11 -63 -9 -14 -32 -30 -52 -37 -34 -13 -35 -15 -35 -63 0 -27 -7 -76 -16 -107 -19 -67 -23 -69 -159 -98 -233 -51 -585 -102 -841 -122 l-149 -11 -240 80 c-674 228 -861 294 -873 309 -35 48 -44 215 -15 317 28 102 91 185 141 186 12 0 22 5 22 11 0 6 7 9 15 5 8 -3 15 -2 15 2 0 5 37 19 83 31 45 13 94 27 109 33 15 6 35 8 43 4 9 -3 13 -2 10 4 -3 6 2 10 12 10 10 0 52 11 93 24 41 13 127 36 190 50 63 15 138 33 165 41 28 7 84 19 125 25 41 7 82 15 90 18 92 36 250 36 327 0z"/>
 <path d="M1370 1300 c-34 -7 -34 -7 -5 -8 17 0 44 4 60 8 27 7 27 8 5 8 -14 -1 -41 -4 -60 -8z"/>
 <path d="M1482 1259 c35 -66 39 -217 8 -302 -26 -71 -36 -83 -87 -102 -23 -8 -30 -14 -18 -14 11 0 36 5 55 12 32 12 40 10 95 -19 167 -90 215 -114 215 -109 0 3 10 -3 22 -15 12 -11 27 -20 34 -20 6 0 17 -7 24 -15 7 -8 20 -15 30 -15 10 0 23 -7 30 -15 7 -8 26 -15 42 -15 19 0 27 -4 22 -11 -5 -8 1 -10 18 -6 20 5 25 3 24 -9 0 -9 15 -24 34 -35 19 -10 40 -22 45 -26 6 -5 23 -14 38 -21 16 -7 75 -39 132 -72 57 -33 107 -60 110 -60 3 0 13 16 21 36 11 27 12 40 4 48 -8 8 -9 6 -4 -8 6 -16 4 -18 -11 -13 -9 4 -24 2 -31 -4 -11 -9 -14 -7 -14 7 0 15 -2 16 -9 5 -7 -11 -13 -10 -34 4 -15 9 -32 13 -38 9 -8 -4 -9 -3 -5 4 4 7 -8 18 -33 28 -22 9 -39 21 -38 27 1 7 -4 11 -12 9 -7 -2 -23 6 -35 16 -24 22 -115 72 -166 92 -19 8 -44 23 -55 33 -11 10 -29 23 -40 28 -22 11 -40 21 -96 57 -20 12 -46 22 -58 22 -12 0 -20 4 -17 9 3 4 -15 19 -39 31 -25 13 -45 27 -45 32 0 4 -5 8 -11 8 -6 0 -26 7 -45 16 l-33 16 6 61 c18 168 1 291 -43 328 -10 8 -7 -3 8 -32z m535 -666 c-4 -3 -10 -3 -14 0 -3 4 0 7 7 7 7 0 10 -3 7 -7z m340 -170 c-4 -3 -7 0 -7 7 0 7 3 10 7 7 3 -4 3 -10 0 -14z"/>
 <path d="M730 1109 c-158 -39 -260 -71 -260 -81 0 -4 -15 -9 -32 -9 -27 -1 -28 -2 -8 -6 48 -8 53 -12 40 -28 -9 -10 -9 -15 -1 -15 6 0 11 -5 11 -11 0 -5 -4 -7 -10 -4 -16 10 -12 -21 5 -35 8 -7 15 -24 15 -39 0 -14 9 -40 19 -57 10 -17 21 -40 24 -50 4 -16 5 -16 6 4 1 18 7 22 35 22 21 0 36 -6 39 -15 8 -19 -11 -31 -26 -16 -16 16 -34 14 -34 -4 0 -8 4 -12 9 -9 4 3 16 0 25 -5 16 -9 16 -10 -4 -11 -12 0 -23 -4 -25 -9 -3 -9 -23 -14 -117 -28 -27 -4 -38 -9 -30 -14 19 -10 333 47 614 112 53 12 90 28 67 29 -7 0 -47 -7 -88 -16 -42 -8 -88 -13 -102 -11 -20 3 -16 4 13 6 32 1 37 4 23 12 -10 5 -18 17 -18 25 0 8 -10 19 -22 24 -19 7 -20 9 -4 9 17 1 18 2 1 27 -9 14 -14 35 -12 46 7 24 -5 59 -26 80 -21 21 -26 86 -7 98 22 14 8 11 -120 -21z m67 -36 c-4 -3 -7 0 -7 7 0 7 3 10 7 7 3 -4 3 -10 0 -14z m-261 -85 c5 -7 3 -8 -6 -3 -9 6 -12 4 -8 -7 4 -9 0 -15 -8 -15 -16 0 -16 0 -8 21 7 19 20 21 30 4z m24 -12 c0 -3 -5 -8 -12 -12 -7 -4 -8 -3 -4 4 7 12 16 16 16 8z m290 -192 c0 -2 -7 -4 -15 -4 -8 0 -15 4 -15 10 0 5 7 7 15 4 8 -4 15 -8 15 -10z"/>
 <path d="M303 1038 c-35 -11 -63 -23 -63 -28 0 -7 129 35 139 46 8 8 -14 3 -76 -18z"/>
 <path d="M190 1030 c-8 -5 -10 -10 -5 -10 6 0 17 5 25 10 8 5 11 10 5 10 -5 0 -17 -5 -25 -10z"/>
 <path d="M200 1000 c-8 -5 -10 -10 -5 -10 6 0 17 5 25 10 8 5 11 10 5 10 -5 0 -17 -5 -25 -10z"/>
 <path d="M166 964 c-5 -14 -4 -15 9 -4 17 14 19 20 6 20 -5 0 -12 -7 -15 -16z"/>
 <path d="M146 915 c-3 -9 -6 -24 -5 -33 0 -9 5 -4 10 12 9 32 6 48 -5 21z"/>
 <path d="M963 833 c4 -3 10 -3 14 0 3 4 0 7 -7 7 -7 0 -10 -3 -7 -7z"/>
 <path d="M180 700 c0 -7 3 -10 7 -7 3 4 3 10 0 14 -4 3 -7 0 -7 -7z"/>
 <path d="M863 693 c4 -3 10 -3 14 0 3 4 0 7 -7 7 -7 0 -10 -3 -7 -7z"/>
 <path d="M305 678 c-33 -5 -72 -7 -87 -5 -16 2 -28 0 -28 -4 0 -12 32 -15 75 -7 22 4 57 7 77 8 20 0 40 5 43 10 7 11 4 11 -80 -2z"/>
 <path d="M743 663 c4 -3 10 -3 14 0 3 4 0 7 -7 7 -7 0 -10 -3 -7 -7z"/>
 <path d="M610 649 c-19 -4 -78 -13 -130 -19 -52 -6 -106 -13 -118 -16 -15 -3 -21 -1 -17 6 6 10 -91 7 -152 -6 -12 -2 -23 1 -25 8 -3 8 -6 9 -11 1 -9 -14 38 -45 69 -47 13 0 24 -4 24 -7 0 -6 146 -53 165 -54 6 0 12 -3 15 -6 3 -4 53 -22 111 -42 58 -19 150 -50 205 -70 146 -51 243 -84 394 -132 l135 -43 145 14 c80 8 155 15 167 16 12 1 19 6 16 11 -3 5 13 6 38 3 36 -6 41 -5 25 5 -12 8 -37 9 -75 4 -99 -13 -354 -11 -376 2 -18 11 -15 12 23 13 24 0 41 3 39 8 -8 12 185 6 218 -7 21 -9 46 -9 90 -2 58 9 58 9 13 8 -103 -2 -61 24 67 42 44 6 94 15 110 21 25 8 20 9 -32 7 -59 -3 -79 4 -50 17 6 3 2 3 -10 0 -13 -3 -23 -2 -23 3 0 5 -29 14 -65 21 -36 7 -82 21 -103 32 -20 11 -47 20 -60 20 -13 0 -32 5 -42 10 -10 6 -30 11 -44 12 -15 1 -26 6 -26 10 0 4 -27 8 -60 8 -33 0 -60 4 -60 9 0 4 -8 8 -17 8 -56 0 -63 3 -63 27 0 27 -33 41 -85 37 -47 -4 -186 -41 -229 -62 -42 -20 -101 -25 -111 -10 -3 5 3 17 12 27 11 11 16 29 14 50 -2 29 1 33 26 36 l28 3 -24 14 c-20 11 -25 11 -32 0 -8 -13 -13 -5 -10 14 1 9 -3 9 -33 -2 -13 -6 -26 -7 -28 -2 -2 4 -19 4 -38 0z m-353 -45 c-3 -3 -12 -4 -19 -1 -8 3 -5 6 6 6 11 1 17 -2 13 -5z m-40 -11 c-4 -3 -10 -3 -14 0 -3 4 0 7 7 7 7 0 10 -3 7 -7z m203 -24 c0 -7 11 -8 30 -4 24 5 29 4 24 -8 -5 -14 -60 -27 -83 -19 -20 7 -13 42 9 42 11 0 20 -5 20 -11z m1108 -266 c2 -7 -1 -13 -8 -13 -6 0 -9 4 -5 9 3 5 -3 12 -12 15 -15 4 -15 5 1 3 11 -1 21 -8 24 -14z"/>
 <path d="M1170 642 c-40 -5 -90 -23 -90 -32 0 -14 32 -16 178 -10 112 4 145 8 152 20 7 11 3 17 -13 23 -20 8 -168 7 -227 -1z"/>
 <path d="M1843 383 c4 -3 10 -3 14 0 3 4 0 7 -7 7 -7 0 -10 -3 -7 -7z"/>
 <path d="M1583 313 c4 -3 10 -3 14 0 3 4 0 7 -7 7 -7 0 -10 -3 -7 -7z"/>
 <path d="M1683 283 c4 -3 10 -3 14 0 3 4 0 7 -7 7 -7 0 -10 -3 -7 -7z"/>
 <path d="M1728 283 c7 -3 16 -2 19 1 4 3 -2 6 -13 5 -11 0 -14 -3 -6 -6z"/>
 <path d="M1763 283 c4 -3 10 -3 14 0 3 4 0 7 -7 7 -7 0 -10 -3 -7 -7z"/>
 </g>
<g id="layer126" fill="#f8f8f9" stroke="none">
 <path d="M0 760 l0 -760 1305 0 1305 0 0 760 0 760 -1305 0 -1305 0 0 -760z m1496 634 c71 -16 109 -35 96 -49 -4 -5 -1 -5 5 -1 11 6 51 -8 63 -23 3 -4 39 -29 80 -56 41 -27 77 -52 80 -56 3 -3 21 -15 41 -25 20 -11 76 -47 125 -81 92 -65 292 -200 322 -218 40 -23 192 -140 192 -147 0 -5 9 -17 20 -28 35 -35 26 -69 -28 -115 -20 -16 -25 -17 -32 -5 -8 12 -10 10 -10 -7 0 -16 -4 -21 -15 -17 -12 5 -15 -2 -15 -33 0 -22 -7 -63 -15 -91 -9 -29 -14 -56 -11 -60 2 -4 -3 -8 -12 -9 -9 -1 -42 -8 -72 -17 -162 -48 -838 -146 -1006 -146 -52 0 -115 18 -415 119 -560 189 -733 250 -747 265 -49 49 -40 319 14 402 8 11 11 24 7 29 -5 4 1 5 11 1 15 -5 17 -4 7 8 -6 7 -9 21 -5 29 5 15 40 43 57 45 4 1 20 8 37 17 16 8 38 15 49 15 10 0 39 9 64 19 24 10 59 21 78 24 55 9 145 36 194 58 11 4 40 11 65 14 25 4 68 13 95 21 152 45 187 54 255 63 42 6 105 19 140 30 35 11 66 18 70 16 3 -2 24 2 46 10 51 18 88 18 170 -1z"/>
 <path d="M1423 1303 c4 -3 10 -3 14 0 3 4 0 7 -7 7 -7 0 -10 -3 -7 -7z"/>
 <path d="M1368 1293 c7 -3 16 -2 19 1 4 3 -2 6 -13 5 -11 0 -14 -3 -6 -6z"/>
 <path d="M1475 1280 c3 -5 8 -10 11 -10 3 0 2 5 -1 10 -3 6 -8 10 -11 10 -3 0 -2 -4 1 -10z"/>
 <path d="M1490 1250 c0 -7 3 -10 7 -7 3 4 3 10 0 14 -4 3 -7 0 -7 -7z"/>
 <path d="M1511 1113 c-1 -112 -26 -203 -63 -235 -25 -22 -5 -24 35 -4 18 10 27 11 27 4 0 -6 3 -9 6 -5 3 3 3 11 -1 17 -5 8 -11 7 -23 -2 -13 -11 -14 -11 -8 0 15 25 46 167 45 207 0 22 -4 58 -8 80 -7 32 -9 19 -10 -62z"/>
 <path d="M717 1102 c-16 -7 -16 -9 -2 -27 12 -16 14 -17 9 -2 -4 11 -1 17 9 17 9 0 19 5 22 10 7 11 -11 12 -38 2z"/>
 <path d="M560 1060 c-19 -7 -15 -8 20 -5 32 4 39 2 25 -4 -15 -7 -10 -9 23 -7 45 4 72 16 31 15 -13 0 -35 2 -49 5 -14 2 -36 1 -50 -4z"/>
 <path d="M310 1040 c-8 -5 -10 -10 -5 -10 6 0 17 5 25 10 8 5 11 10 5 10 -5 0 -17 -5 -25 -10z"/>
 <path d="M748 1043 c7 -3 16 -2 19 1 4 3 -2 6 -13 5 -11 0 -14 -3 -6 -6z"/>
 <path d="M273 1023 c4 -3 10 -3 14 0 3 4 0 7 -7 7 -7 0 -10 -3 -7 -7z"/>
 <path d="M243 1013 c4 -3 10 -3 14 0 3 4 0 7 -7 7 -7 0 -10 -3 -7 -7z"/>
 <path d="M193 993 c4 -3 10 -3 14 0 3 4 0 7 -7 7 -7 0 -10 -3 -7 -7z"/>
 <path d="M620 979 c0 -11 5 -17 10 -14 6 3 10 13 10 21 0 8 -4 14 -10 14 -5 0 -10 -9 -10 -21z"/>
 <path d="M174 968 c-4 -7 -3 -8 4 -4 12 7 16 16 8 16 -3 0 -8 -5 -12 -12z"/>
 <path d="M1383 843 c4 -3 10 -3 14 0 3 4 0 7 -7 7 -7 0 -10 -3 -7 -7z"/>
 <path d="M1523 843 c4 -3 10 -3 14 0 3 4 0 7 -7 7 -7 0 -10 -3 -7 -7z"/>
 <path d="M993 803 c4 -3 10 -3 14 0 3 4 0 7 -7 7 -7 0 -10 -3 -7 -7z"/>
 <path d="M1663 803 c4 -3 10 -3 14 0 3 4 0 7 -7 7 -7 0 -10 -3 -7 -7z"/>
 <path d="M693 793 c4 -3 10 -3 14 0 3 4 0 7 -7 7 -7 0 -10 -3 -7 -7z"/>
 <path d="M728 793 c7 -3 16 -2 19 1 4 3 -2 6 -13 5 -11 0 -14 -3 -6 -6z"/>
 <path d="M794 788 c-4 -7 -3 -8 4 -4 12 7 16 16 8 16 -3 0 -8 -5 -12 -12z"/>
 <path d="M843 793 c4 -3 10 -3 14 0 3 4 0 7 -7 7 -7 0 -10 -3 -7 -7z"/>
 <path d="M938 793 c6 -2 18 -2 25 0 6 3 1 5 -13 5 -14 0 -19 -2 -12 -5z"/>
 <path d="M1623 793 c4 -3 10 -3 14 0 3 4 0 7 -7 7 -7 0 -10 -3 -7 -7z"/>
 <path d="M865 780 c-19 -8 -19 -9 3 -9 12 -1 22 4 22 9 0 6 -1 10 -2 9 -2 0 -12 -4 -23 -9z"/>
 <path d="M663 773 c4 -3 10 -3 14 0 3 4 0 7 -7 7 -7 0 -10 -3 -7 -7z"/>
 <path d="M715 770 c-3 -5 -2 -10 4 -10 5 0 13 5 16 10 3 6 2 10 -4 10 -5 0 -13 -4 -16 -10z"/>
 <path d="M810 770 c0 -5 7 -10 16 -10 8 0 12 5 9 10 -3 6 -10 10 -16 10 -5 0 -9 -4 -9 -10z"/>
 <path d="M756 763 c-4 -4 -33 -11 -64 -14 -80 -10 -130 -24 -112 -30 20 -8 220 33 214 43 -6 10 -28 10 -38 1z"/>
 <path d="M1705 750 c3 -5 11 -10 16 -10 6 0 7 5 4 10 -3 6 -11 10 -16 10 -6 0 -7 -4 -4 -10z"/>
 <path d="M515 710 l-20 -9 20 0 c11 0 27 4 35 9 13 9 13 10 0 9 -8 0 -24 -4 -35 -9z"/>
 <path d="M403 693 c4 -3 10 -3 14 0 3 4 0 7 -7 7 -7 0 -10 -3 -7 -7z"/>
 <path d="M208 663 c6 -2 18 -2 25 0 6 3 1 5 -13 5 -14 0 -19 -2 -12 -5z"/>
 <path d="M743 663 c4 -3 10 -3 14 0 3 4 0 7 -7 7 -7 0 -10 -3 -7 -7z"/>
 <path d="M571 640 c-19 -5 -74 -11 -123 -15 -48 -4 -88 -10 -88 -14 0 -4 -18 -7 -40 -8 -58 -1 -111 -13 -105 -23 3 -4 14 -6 25 -3 11 3 20 1 20 -4 0 -5 35 -20 78 -32 42 -13 84 -27 93 -31 10 -5 21 -4 28 3 10 9 12 9 9 -2 -2 -9 34 -27 117 -56 66 -23 140 -50 164 -59 24 -9 46 -14 49 -11 3 3 -1 5 -8 5 -7 0 -11 3 -7 6 3 3 18 -3 34 -13 15 -11 34 -18 41 -16 6 3 12 0 12 -6 0 -6 9 -11 20 -11 12 0 34 -7 50 -15 16 -8 41 -16 55 -17 14 -1 25 -6 25 -11 0 -5 7 -7 15 -3 8 3 15 2 15 -2 0 -5 35 -19 78 -31 42 -13 88 -27 102 -32 43 -14 220 -7 220 9 0 10 -77 9 -86 -1 -4 -4 -12 -7 -18 -7 -6 0 -6 4 2 8 7 5 -7 8 -35 7 -26 -2 -50 1 -53 5 -9 13 -60 21 -60 10 0 -6 -5 -8 -11 -4 -8 4 -7 9 2 15 11 7 9 9 -6 10 l-20 0 20 9 c26 11 44 12 26 1 -8 -5 5 -8 36 -6 57 3 95 13 88 24 -2 5 53 11 123 14 132 5 224 23 121 23 -32 0 -54 5 -57 12 -2 7 -28 13 -65 14 l-62 1 55 7 55 7 -72 1 c-40 1 -73 6 -73 11 0 5 -18 12 -40 16 -22 4 -40 11 -40 16 0 5 -18 12 -40 15 -22 4 -40 10 -40 15 0 5 -18 9 -40 9 -22 0 -40 4 -40 9 0 5 -17 12 -37 16 -21 4 -41 11 -44 17 -4 6 -28 13 -54 15 -32 4 -42 9 -33 15 13 8 3 7 -67 -7 -14 -3 -50 -17 -80 -30 -80 -37 -134 -31 -120 14 5 16 3 20 -9 15 -9 -3 -16 -2 -16 4 0 6 5 12 10 14 16 5 -8 66 -30 78 -21 11 -21 11 -69 0z m-136 -50 c3 -5 4 -10 1 -10 -3 0 -8 5 -11 10 -3 6 -4 10 -1 10 3 0 8 -4 11 -10z m-78 -17 c-4 -3 -7 0 -7 7 0 7 3 10 7 7 3 -4 3 -10 0 -14z m200 11 c-3 -3 -12 -4 -19 -1 -8 3 -5 6 6 6 11 1 17 -2 13 -5z m-137 -15 c0 -7 11 -8 30 -4 23 5 30 3 30 -9 0 -17 -24 -26 -60 -21 -14 2 -28 4 -32 4 -5 1 -8 10 -8 21 0 13 7 20 20 20 11 0 20 -5 20 -11z m477 -46 c-4 -3 -10 -3 -14 0 -3 4 0 7 7 7 7 0 10 -3 7 -7z m400 -214 c-16 -4 -38 -4 -50 0 -15 6 -6 8 29 8 41 0 44 -1 21 -8z m-150 -25 c-3 -3 -12 -4 -19 -1 -8 3 -5 6 6 6 11 1 17 -2 13 -5z"/>
 <path d="M673 643 c4 -3 10 -3 14 0 3 4 0 7 -7 7 -7 0 -10 -3 -7 -7z"/>
 <path d="M1250 643 c-105 -14 -84 -33 36 -33 85 0 112 8 84 25 -12 8 -85 12 -120 8z"/>
 <path d="M318 623 c7 -3 16 -2 19 1 4 3 -2 6 -13 5 -11 0 -14 -3 -6 -6z"/>
 <path d="M210 612 c0 -4 18 -6 40 -4 22 2 40 6 40 8 0 2 -18 4 -40 4 -22 0 -40 -3 -40 -8z"/>
 <path d="M185 600 c-3 -5 -1 -10 4 -10 6 0 11 5 11 10 0 6 -2 10 -4 10 -3 0 -8 -4 -11 -10z"/>
 <path d="M2064 555 c36 -19 45 -19 20 0 -10 8 -26 14 -34 15 -8 0 -2 -7 14 -15z"/>
 <path d="M2260 451 c0 -5 8 -11 18 -15 9 -3 24 -9 32 -12 8 -3 4 4 -10 15 -27 22 -40 26 -40 12z"/>
 <path d="M2361 423 c-9 -16 -12 -16 -21 -3 -9 12 -11 12 -8 -5 4 -27 29 -25 39 3 10 26 4 29 -10 5z"/>
 <path d="M1434 308 c-4 -7 -3 -8 4 -4 7 4 12 9 12 12 0 8 -9 4 -16 -8z"/>
 <path d="M1483 293 c4 -3 10 -3 14 0 3 4 0 7 -7 7 -7 0 -10 -3 -7 -7z"/>
 <path d="M1533 283 c4 -3 10 -3 14 0 3 4 0 7 -7 7 -7 0 -10 -3 -7 -7z"/>
 <path d="M1588 273 c7 -3 16 -2 19 1 4 3 -2 6 -13 5 -11 0 -14 -3 -6 -6z"/>
 <path d="M1535 260 c-3 -5 -2 -10 4 -10 5 0 13 5 16 10 3 6 2 10 -4 10 -5 0 -13 -4 -16 -10z"/>
 <path d="M1475 250 c3 -5 8 -10 11 -10 3 0 2 5 -1 10 -3 6 -8 10 -11 10 -3 0 -2 -4 1 -10z"/>
 </g>

</svg>